<svg xmlns="http://www.w3.org/2000/svg" xmlns:xlink="http://www.w3.org/1999/xlink" viewBox="0 0 1781.05 1394.76">
  <defs>
    <linearGradient id="a" y1="697.38" x2="1552.02" y2="697.38" gradientUnits="userSpaceOnUse">
      <stop offset="0" stop-color="#fff877"/>
      <stop offset="0.22" stop-color="#fff877" stop-opacity="0.76"/>
      <stop offset="0.6" stop-color="#fff877" stop-opacity="0.36"/>
      <stop offset="0.87" stop-color="#fff877" stop-opacity="0.1"/>
      <stop offset="1" stop-color="#fff877" stop-opacity="0"/>
    </linearGradient>
  </defs>

    <polygon points="1552.02 0 0 1394.76 1102.39 1394.76 1552.02 0" fill="url(#a)" opacity="0"/>
   
     
        <path d="M1166.6,921.2v2a1.54,1.54,0,0,0,1.65,1.54l121.29-9a1.54,1.54,0,0,0,1.43-1.53h0a1.54,1.54,0,0,0-1.63-1.54l-121.29,7A1.54,1.54,0,0,0,1166.6,921.2Z" fill="#1a1a1a"/>
        <path d="M689.11,982l1.41,1.4a1.53,1.53,0,0,0,2.25-.08l79.44-92.09a1.54,1.54,0,0,0-.08-2.09h0a1.53,1.53,0,0,0-2.23.06l-80.85,90.68A1.56,1.56,0,0,0,689.11,982Z" fill="#1a1a1a"/>
       
          <path d="M1189.75,930.83c2-.07,3.84.42,3.41,2.55-.88,4.42-6.19,2.65-7.08,6.19s1.77,5.31-.88,9.74-25.67,42.49-54,62.85-61.08,37.17-81.43,33.63c-14.8-2.57-31,6.55-36.38,28.4-8.77-29.28-14-69.54-9.17-97.65l.19-.39a197.79,197.79,0,0,0,29.42,12.11c23,7.08,55.77,33.63,103.57-11.51s51.34-55.77,54.88-61.08,17.7-15,9.73,0-12.26,15.15-12.26,15.15Z" fill="#e6e6e6"/>
          <path d="M1172.8,1351.17c0,5.31-12.39,9.74-26.55,12.39s-26.56,14.17-32.75,10.63-3.54-15.94-2.66-23.9c0,0,6.12,4.58,15-7.45,6.3,6.27,17.17,2.77,24.82,2.13C1161.3,1344.09,1172.8,1345.86,1172.8,1351.17Z" fill="#1a1a1a"/>
          <path d="M1082.84,1191.43c-5.63,3.07-26.88.41-26.88.41l-.23.15a112.45,112.45,0,0,0-199,19.33,38.6,38.6,0,0,1-20.84-7.61c3.33,39.21,1.39,121.79,1.39,121.79l-3.19,1.13L819,1332l-9.11,3.23s-30.1-128.35-39.83-171.72,3.54-39,74.35-15.94,56.65,2.66,53.11-27.44a255.81,255.81,0,0,0-10-47c1.65-7,10.71-49-.59-81.36h.87a30.65,30.65,0,0,0,13.16-3.23l.12.23s10.62,89.74,42.49,89.74c31.66,0,49.89-38.12,50.12-106,0-.44,0-.88,0-1.33l0-.72c3.5,2,7.09,3.89,10.71,5.71l-.19.39c-4.83,28.11.4,68.37,9.17,97.65-2,8.19-2.49,18.19-.8,30,6.2,43.37,6.2,42.49,58.42,29.21s62.85-16.82,62,13.28-7.08,182.34-7.08,182.34l-4.86,1.42-11.92,3.48-4.46,1.3S1086.92,1237.71,1082.84,1191.43Z" fill="#ff4c4f"/>
          <path d="M1121,1330.46c.62,6.07,2.37,10,4.82,12.38-8.89,12-15,7.45-15,7.45.89-8-1.73-16.35-1.73-16.35Z" fill="#e6e6e6"/>
          <path d="M984.25,915.72a21.59,21.59,0,0,1-8.84-6.24c-2.06-2.54-3.49-5.82-4.42-22.13-1.08-18.59.24-23.49-3.54-26.56-5.24-4.22-16.22-1.71-17.71,2.66-2.12,6.23,15,16.52,12.4,21.24a4.9,4.9,0,0,1-2.66,1.77c-3.6,1.45-7.42-.08-8.85-.88-8.29-4.6-6.07-23-8-23-.76,0-1.33,2.84-1.77,4.43-2.83,10-14.67,18.72-26.61,22A38.46,38.46,0,0,1,909,890c-10.95,1.44-14.78-3.17-22.13.89-6.83,3.77-7.47,9.91-11.51,9.73-5.54-.23-12.12-12.08-8.85-18.58,3.42-6.85,15.7-3.66,19.47-11.51,2.07-4.31-1.17-6.28.89-11.51,2.78-7.12,12.38-12.61,20.36-11.5,5,.69,6.65,3.62,10.62,2.65,3.62-.88,5-4,8-8,5-6.81,12.11-13,18.59-15.93,8.76-3.95,17.35-2.34,20.36-1.77,2.16.41,20.26,4.06,23.9,15.93,2.08,6.82-2.88,8.86-4.43,22.13-1.3,11.13.93,20.36,2.66,27.44,4,16.48,9.9,22.73,7.08,25.67C992.35,917.4,988.36,917.29,984.25,915.72Z" fill="#6c5dff"/>
          <path d="M993.7,970.44l0,.72c0,.45,0,.89,0,1.33h-1.93c-4,1.53-17.75,5.49-31.7,1.87-11.74-3.05-20-15-23.33-18.85l1.47-1.7c4.3,2.83,12.08,6.9,19.53,4.36,1.6-.54,3.92-1.65,8-7.06C972.91,957.51,982.85,964.29,993.7,970.44Z" fill="#ccc"/>
          <path d="M991.74,972.48h1.93c-.23,67.93-18.46,106-50.12,106-31.87,0-42.49-89.74-42.49-89.74l-.12-.23c14.24-6.76,26.87-22.61,35.77-33.07,3.35,3.82,11.59,15.8,23.33,18.85C974,978,987.71,974,991.74,972.48Z" fill="#e6e6e6"/>
          <path d="M965.69,951.1c-4.06,5.41-6.38,6.52-8,7.06-7.45,2.54-15.23-1.53-19.53-4.36-1.13-.75-2-1.4-2.6-1.84-9.53-7-12.92-16.88-15.93-25.67-2.07-6-5.51-24.56-5.31-37.17l-.06-.18c11.94-3.23,23.78-11.91,26.61-22,.44-1.59,1-4.44,1.77-4.43,1.9.07-.32,18.42,8,23,1.43.8,5.25,2.33,8.85.88a4.9,4.9,0,0,0,2.66-1.77c2.61-4.72-14.52-15-12.4-21.24,1.49-4.37,12.47-6.88,17.71-2.66,3.78,3.07,2.46,8,3.54,26.56.93,16.31,2.36,19.59,4.42,22.13a21.59,21.59,0,0,0,8.84,6.24A179.72,179.72,0,0,1,971,943.11,94.26,94.26,0,0,1,965.69,951.1Z" fill="#e6e6e6"/>
          <path d="M720.12,979.13c4.39,7.27,14.15,21.14,34,41,30.54,30.54,52.67,24.34,64.62,12.39,11.78-11.78,47.65-39.9,68.17-40.7,11.3,32.35,2.24,74.33.59,81.36-.91-2.83-1.49-4.36-1.49-4.36-4.57-11.88-25.67-8-40.72,5.31s-52.22,43.37-106.22-38.07-41.6-101.79-40.71-103.56,5.31,16.82,11.5,23.9,8.86,5.31,10.63,4.43S724.18,977.06,720.12,979.13Z" fill="#e6e6e6"/>
          <path d="M835.72,1350c.08,4.61,0,9.76-.16,15.35-.89,23-19.48,15.05-23.9,15.05s-15,3.54-34.52,5.31-12.4-4.42-8-5.31,22.13-4.42,37.18-15.05a25.82,25.82,0,0,0,6.67-6.91h0A37,37,0,0,0,835.72,1350Z" fill="#1a1a1a"/>
          <path d="M834.14,1326.63a203,203,0,0,1,1.58,23.35,37,37,0,0,1-22.69,8.44c7.56-11.33,6-26.41,6-26.41Z" fill="#e6e6e6"/>
      
        <line x1="644.36" y1="1067.04" x2="644.36" y2="1352.94" fill="none" stroke="#4d4d4d" stroke-miterlimit="10" stroke-width="3"/>
        <rect x="1092.25" y="1078.55" width="176.15" height="94.71" rx="12" fill="#5f83ff"/>
        <rect x="610.72" y="1134.31" width="193.85" height="104.45" rx="12" fill="#5f83ff"/>
        <line x1="1357.8" y1="999.77" x2="1357.8" y2="1352.94" fill="none" stroke="#666" stroke-miterlimit="10" stroke-width="3"/>
        <path d="M854,1376h214.59a5.12,5.12,0,0,1,5.12,5.12v3.73a0,0,0,0,1,0,0H848.83a0,0,0,0,1,0,0v-3.73A5.12,5.12,0,0,1,854,1376Z" fill="#333"/>
        <path d="M1461.42,956l-207.37,86.88-1.44-3.44a5.12,5.12,0,0,1,2.75-6.7l197.92-82.92a5.12,5.12,0,0,1,6.7,2.74Z" fill="#ffd500"/>
        <path d="M756.3,1081.5l-223.18-27.21.45-3.71a5.13,5.13,0,0,1,5.7-4.46l213,26a5.13,5.13,0,0,1,4.47,5.7Z" fill="#ffd500"/>
        <line x1="1357.8" y1="1352.94" x2="1320.62" y2="1384.81" fill="none" stroke="#666" stroke-miterlimit="10" stroke-width="3"/>
        <line x1="1357.8" y1="1352.94" x2="1394.97" y2="1384.81" fill="none" stroke="#666" stroke-miterlimit="10" stroke-width="3"/>
        <line x1="1347.18" y1="1384.81" x2="1357.8" y2="1352.94" fill="none" stroke="#666" stroke-miterlimit="10" stroke-width="3"/>
        <line x1="644.36" y1="1352.94" x2="607.18" y2="1384.81" fill="none" stroke="#4d4d4d" stroke-miterlimit="10" stroke-width="3"/>
        <line x1="644.36" y1="1352.94" x2="681.54" y2="1384.81" fill="none" stroke="#4d4d4d" stroke-miterlimit="10" stroke-width="3"/>
        <line x1="633.74" y1="1384.81" x2="644.36" y2="1352.94" fill="none" stroke="#4d4d4d" stroke-miterlimit="10" stroke-width="3"/>
        <path d="M1226.76,1176.06l79.38,207.42a2.06,2.06,0,0,0,1.93,1.33h0a2.06,2.06,0,0,0,2-2.68l-65.54-207.43a2.06,2.06,0,0,0-2-1.44h-13.83A2.07,2.07,0,0,0,1226.76,1176.06Z" fill="#ccc"/>
        <path d="M1133.85,1176.06l-79.38,207.42a2.06,2.06,0,0,1-1.93,1.33h0a2.06,2.06,0,0,1-2-2.68l65.54-207.43a2.06,2.06,0,0,1,2-1.44h13.83A2.07,2.07,0,0,1,1133.85,1176.06Z" fill="#ccc"/>
        <path d="M1179.88,1386.58h0a2.71,2.71,0,0,1-2.71-2.65L1172.86,1176a2.7,2.7,0,0,1,2.71-2.76h8.62a2.7,2.7,0,0,1,2.71,2.76l-4.31,207.91A2.71,2.71,0,0,1,1179.88,1386.58Z" fill="#ccc"/>
        <path d="M754.09,1241.14l79.37,143.3a2.21,2.21,0,0,0,1.93.92h0c1.4,0,2.39-.94,2-1.86l-65.55-143.3a2.12,2.12,0,0,0-2-1H756C754.57,1239.2,753.57,1240.2,754.09,1241.14Z" fill="#ccc"/>
        <path d="M661.17,1241.14l-79.37,143.3a2.21,2.21,0,0,1-1.93.92h0c-1.4,0-2.39-.94-2-1.86l65.55-143.3a2.12,2.12,0,0,1,2-1h13.83C660.69,1239.2,661.69,1240.2,661.17,1241.14Z" fill="#ccc"/>
        <path d="M707.2,1386.58h0c-1.47,0-2.68-.81-2.71-1.83l-4.31-143.64c0-1,1.19-1.91,2.71-1.91h8.63c1.52,0,2.74.86,2.71,1.91l-4.31,143.64C709.88,1385.77,708.68,1386.58,707.2,1386.58Z" fill="#ccc"/>
        <circle cx="961.25" cy="1252.92" r="104.45" fill="#67ffe6"/>
    
     
       
          <path d="M519.74,900l-30.73,11c-.61-1.88-1.25-3.84-1.94-5.85-7.69-22.3-10.62-22.76-17.8-46.07a259.55,259.55,0,0,1-7.71-29.94c2.51-.82,5.21-1.77,8.17-2.9,10.3-3.93,19.85-10.16,27.32-15.59l.05.08s5.47,6.39,12.76,27.82S517.17,878.17,519.74,900Z" fill="#e6e6e6"/>
          <rect x="465.62" y="1388.81" width="37.47" height="5.56" fill="#1a1a1a"/>
          <path d="M500,1379.21a6.67,6.67,0,0,1,3.11,5.66v3.94H465.62v-3.94a6.71,6.71,0,0,1,6.7-6.71h24.06A6.58,6.58,0,0,1,500,1379.21Z" fill="#666"/>
          <path d="M495,1365.48l5,13.73a6.58,6.58,0,0,0-3.6-1H472.32a6.62,6.62,0,0,0-4,1.36l-2.66-14Z" fill="#e6e6e6"/>
          <path d="M461.56,829.07a101,101,0,0,1-17.19,4.11c-6-10.39-11.25-22-11.71-23.84s-1.89-1.63-1.89-1.63,1.2,12.15,2,28.12,8.14,157.58,8.14,157.58h-148S300.89,871.6,301.5,845s0-34.59,0-34.59a131,131,0,0,1-7.73,22.95c-5.74,13.29-7.64,13.79-7.64,13.79a150.08,150.08,0,0,1-34.4-8.17,161.65,161.65,0,0,1-22.2-9.9c-3.57-1.92-6.82-3.84-9.73-5.68.87-2,2.17-4.92,3.83-8.43,7.72-16.32,16.5-41,34.78-55.25,12.24-9.55,23.56-12.91,36.92-23.53,3.93,6.55,18.24,28.68,44.46,35.08,4.8,1.17,14,3.3,25.07.68,12.85-3.06,21.17-10.86,29.84-19a115.33,115.33,0,0,0,17-20c3.61,2.85,7.76,5.86,12.53,9,26.85,17.65,34.94,13.79,52.57,27.39,8.75,6.73,19.43,17.46,28.49,35-2.31,1.76-5.07,3.89-8.21,6.16-7.47,5.43-17,11.66-27.32,15.59C466.77,827.3,464.07,828.25,461.56,829.07Z" fill="#67ffe6"/>
          <path d="M450.34,1056.1l46.76,309.38H464.8L378.47,1082.6a12.39,12.39,0,0,0-23.26,0l-86.33,282.88H236.59l56.24-372.07h72.62v71.13c21.06-20.47,28.68-25.18,42-28.27,18.1-4.2,28.6,5.41,42.5,19.89Z" fill="#ff4c4f"/>
          <path d="M440.86,993.41l9.48,62.69-.43.06c-13.9-14.48-24.4-24.09-42.5-19.89-13.28,3.09-20.9,7.8-42,28.27V993.41Z"/>
          <path d="M432,649c3.82,22-9.29,41.23-14.89,49.45-9.83,14.4-12.77,16.23-20.27,20.93a92,92,0,0,1-6.1-7.47,107.55,107.55,0,0,1-12.24-21.62,98,98,0,0,0,11.3-24.14c4.46-13.6,9.41-28.71,5.79-48.24-2-10.91-4.45-24-17.37-33.57-2.77-2-13.19-9.74-27.31-9.08-17.82.82-28.82,14.32-33.11,19.58-13.38,16.41-12.36,34.35-11.58,48.24a94.26,94.26,0,0,0,14.07,44.05c2.1,3.38,4.34,7,6.81,10.41l-1.21.89a119.12,119.12,0,0,1-22.5,30.69,101.69,101.69,0,0,1-8.1,7.16c-13.36,10.62-24.68,14-36.92,23.53C240.13,774,231.35,798.69,223.63,815c-1.66,3.51-3,6.44-3.83,8.43,2.91,1.84,6.16,3.76,9.73,5.68-1.19,10.44-10.78,19.45-15.58,34-6.19,18.83-10.22,30.1-9.14,43a13.39,13.39,0,0,0,.46,2.65l-.46.33a77.77,77.77,0,0,1-40,27.42c-8.91,2.52-25.55,7.24-41.37-.77-10.68-5.4-22.84-17.52-20.7-28.9,2.27-12.12,20.41-10.22,28.14-26.63s-.47-25.5,5-43.38c5.35-17.6,19.15-28,40.55-44.12,30.76-23.18,46-22.15,51.31-38,4.71-14.05-5.57-19.67,0-38,1.77-5.89,4.27-10.08,20.68-30.43C273.48,655,273,658.17,276.47,652c14.52-25.94-1.92-37.38,10.76-59.35,10.8-18.73,36-33.4,62.06-31.95,24.57,1.36,40.52,16.54,43,19,5.56,5.46,11.81,5,17.37,28.9C417.14,640.49,430.52,640.16,432,649Z" fill="#6c5dff"/>
          <path d="M411.67,733a115.33,115.33,0,0,1-17,20c-8.67,8.12-17,15.92-29.84,19-11.06,2.62-20.27.49-25.07-.68-26.22-6.4-40.53-28.53-44.46-35.08a101.69,101.69,0,0,0,8.1-7.16,119.12,119.12,0,0,0,22.5-30.69c3.73,5.28,14.84,19,22.11,24.29C373.1,740.78,404,734.47,411.67,733Z" fill="#e6e6e6"/>
          <path d="M396.88,719.33A120.69,120.69,0,0,0,411.67,733c-7.72,1.49-38.57,7.8-63.63-10.31-7.27-5.25-18.38-19-22.11-24.29l1.21-.89c5.39,7.38,11.9,13.66,20.49,14.06,8.86.41,15.87-5.63,21.52-10.48a51.18,51.18,0,0,0,9.39-10.83,107.55,107.55,0,0,0,12.24,21.62A92,92,0,0,0,396.88,719.33Z" fill="#ccc"/>
          <path d="M378.54,690.24a51.18,51.18,0,0,1-9.39,10.83c-5.65,4.85-12.66,10.89-21.52,10.48-8.59-.4-15.1-6.68-20.49-14.06-2.47-3.4-4.71-7-6.81-10.41A94.26,94.26,0,0,1,306.26,643c-.78-13.89-1.8-31.83,11.58-48.24,4.29-5.26,15.29-18.76,33.11-19.58,14.12-.66,24.54,7,27.31,9.08,12.92,9.57,15.35,22.66,17.37,33.57,3.62,19.53-1.33,34.64-5.79,48.24A98,98,0,0,1,378.54,690.24Z" fill="#e6e6e6"/>
          <rect x="230.26" y="1388.81" width="37.48" height="5.56" fill="#1a1a1a"/>
          <path d="M265.07,1379.53a6.62,6.62,0,0,1,2.67,5.34v3.94H230.26v-3.94a6.66,6.66,0,0,1,3.11-5.65,6.55,6.55,0,0,1,3.6-1.06h24A6.55,6.55,0,0,1,265.07,1379.53Z" fill="#666"/>
          <path d="M267.74,1365.48l-2.67,14a6.55,6.55,0,0,0-4.05-1.37H237a6.55,6.55,0,0,0-3.6,1.06l5-13.74Z" fill="#e6e6e6"/>
      
       
          <path d="M772.15,838.27c3.16,8.24-1.77,19.58-14.08,20.12s-9.56-11.9-23.33-3.58-28,20.71-34.78,20.73-12.21-10.86-33.44-2.81c-2.55.74-5.41,1.71-8.65,3-32.84,13-214.65,85.51-219.74,87.47a.77.77,0,0,0-.24.12v0l-10.53,3.87a.66.66,0,0,0-.64-.1c-5.93,2.28-6.7,2.46-11.75-11.49s-4-15.55-.23-17,11.39-4.14,11.39-4.14L455.67,923c21.57-8.26,181.06-64.31,200.27-72.23s6-16.21,21-16.37,56.16-4.35,70.74-5.44S769,830,772.15,838.27Z" fill="#ffce7a"/>
          <path d="M754,819c8.95-.52,5,6.64,5,6.64l-10.52.84S745,819.5,754,819Z"/>
          <path d="M739.5,820c9-.53,5,6.64,5,6.64l-10.52.83S730.53,820.53,739.5,820Z"/>
          <path d="M725.07,821.05c9-.52,5,6.64,5,6.64l-10.51.84S716.08,821.57,725.07,821.05Z"/>
          <path d="M710.62,822.09c9-.52,5,6.64,5,6.64l-10.52.83S701.65,822.61,710.62,822.09Z"/>
          <path d="M696.17,823.13c9-.53,5,6.64,5,6.64l-10.53.83S687.2,823.65,696.17,823.13Z" fill="#1a1a1a"/>
          <path d="M681.73,824.17c9-.52,5,6.64,5,6.64l-10.52.83S672.76,824.69,681.73,824.17Z" fill="#1a1a1a"/>
          <path d="M466.93,992.6c6.17-2.88,19,8.78,4.3,21.93-16.55,14.85-45.31,11.6-55.29,11.15s-22,4.18-40.76,26.92-46.2,38.16-66.6,36.06c-20.65-2.09-36.38-5-60-66.32-7.48-19.37-35-97.23,32.11-110.68s61.1,21.63,114.24-25.4,87.26-10,64-3.53c-40.06,11.25-25.49,48.84-3.18,40.3l-29.55,11.44s5.56-22.3-13-9.32C388.88,942.06,377.43,937.27,346,940c-46.54,4-33.06,32-33.06,32s6.8-4,8.34,0c1.62,4.25,11.64,30.62,12.87,33.85,1.48,3.86-5.76,5.61-5.76,5.61s10.83,17.18.49,41.36c-12.22,28.58,4.9,26.06,16.91,16.24s24.31-23.63,35.77-34,21.83-17.43,35.71-16c17.76,1.82,29.72.69,40.4-4,15.48-6.91,16.17-17.57,2.76-13.85-32.74,9.07-29.62-31.18-33-33.93l10.53-3.87C433.12,966.52,435.86,1007.12,466.93,992.6Z" fill="#5f83ff"/>
          <path d="M427.35,967.2c3.43,2.75.31,43,33,33.93,13.41-3.72,12.72,6.94-2.76,13.85-10.68,4.74-22.64,5.87-40.4,4-13.88-1.4-24.25,5.68-35.71,16s-23.75,24.18-35.77,34-29.13,12.34-16.91-16.24c10.34-24.18-.49-41.36-.49-41.36s7.24-1.75,5.76-5.61c-1.23-3.23-11.25-29.6-12.87-33.85-1.54-4-8.34,0-8.34,0S299.43,944.06,346,940c31.46-2.74,42.91,2,67.14-14.86,18.57-13,13,9.32,13,9.32s-7.58,2.68-11.39,4.14-4.84,3,.23,17,5.82,13.77,11.75,11.49A.66.66,0,0,1,427.35,967.2Zm-18,11.38a5.47,5.47,0,0,0,3.14-7.05l-10-26.14a5.45,5.45,0,0,0-10.18,3.9l10,26.14A5.47,5.47,0,0,0,409.38,978.58ZM379.57,990a5.46,5.46,0,0,0,3.14-7l-10-26.14a5.45,5.45,0,0,0-10.18,3.89l10,26.14A5.45,5.45,0,0,0,379.57,990Zm-29.7,30.58a5.57,5.57,0,1,0-7.2-3.21A5.58,5.58,0,0,0,349.87,1020.57Zm-.8,25.5a5.58,5.58,0,1,0-7.21-3.23A5.59,5.59,0,0,0,349.07,1046.07ZM346,1002.42a5.46,5.46,0,0,0,4.49-6.27l-4.55-27.62a5.46,5.46,0,0,0-10.77,1.77l4.55,27.62A5.47,5.47,0,0,0,346,1002.42Zm-6.83,65.06a5.58,5.58,0,1,0-7.19-3.23A5.59,5.59,0,0,0,339.15,1067.48Z" fill="#fff"/>
          <path d="M412.52,971.53a5.46,5.46,0,1,1-10.19,3.9l-10-26.14a5.45,5.45,0,0,1,10.18-3.9Z" fill="#1a1a1a"/>
          <path d="M382.71,983a5.45,5.45,0,1,1-10.19,3.89l-10-26.14a5.45,5.45,0,0,1,10.18-3.89Z" fill="#1a1a1a"/>
          <path d="M353.08,1013.37a5.57,5.57,0,1,1-7.2-3.21A5.58,5.58,0,0,1,353.08,1013.37Z" fill="#1a1a1a"/>
          <path d="M352.28,1038.86a5.58,5.58,0,1,1-7.2-3.21A5.59,5.59,0,0,1,352.28,1038.86Z" fill="#1a1a1a"/>
          <path d="M350.47,996.15a5.46,5.46,0,1,1-10.77,1.77l-4.55-27.62a5.46,5.46,0,0,1,10.77-1.77Z" fill="#1a1a1a"/>
          <path d="M342.38,1060.28a5.58,5.58,0,1,1-7.2-3.22A5.59,5.59,0,0,1,342.38,1060.28Z" fill="#1a1a1a"/>
      
       
          <path d="M617.06,884.55c.62,6-7.84,11.2-17.33,17.33-13.38,8.66-25.5,16.51-33.29,22.81-23.88,19.32-25.48,39.06-42,40.15a24,24,0,0,1-12.31-2.74c-8.14-4-11.37-11-14.79-22.46l34.5-13.78c33-16.7,49.83-29.9,59.2-39.48,3.07-3.16,11.27-12,18.69-10A10.19,10.19,0,0,1,617.06,884.55Z" fill="#e6e6e6"/>
          <path d="M243.53,905.07a109.33,109.33,0,0,1,13,10.24c8.52,7.83,12.2,13.76,18.54,22.15,8.14,10.77,19.86,26.34,37.54,40.19,14.22,11.14,21.35,16.71,31.77,19.72,7.32,2.12,17,3.45,17.56,7.71.39,2.78-3.27,5.3-3.6,5.54-4.25,2.86-10.09,1.94-18.54-1.2-15.68-5.85-24.31-12.77-24.31-12.77-5.17-4.15-22.06-15-55.84-36.82-20.35-13.13-28.48-17.07-39.94-29.11-13.83-14.54-14.75-22.18-14.92-24.31-1.08-12.88,2.95-24.15,9.14-43,4.84-14.71,14.54-23.74,15.6-34.3A164.82,164.82,0,0,0,251.73,839a157,157,0,0,0,22.34,6.28h0c-1.24,7.45-3.73,19.69-9.1,30.78C259.07,888.28,249,899.37,243.53,905.07Z" fill="#e6e6e6"/>
      
    
     
       
          <path d="M1390.12,633.69A19.11,19.11,0,0,1,1367.35,662a14.51,14.51,0,0,0-12.23-19.22l-.15,0a19.11,19.11,0,0,1,35.15-9Z" fill="#1a1a1a"/>
          <path d="M1365.85,649.32a14.5,14.5,0,0,1,1.5,12.64l-63.43,34.54-5.38-8.18L1355,644.05l.15-1.31A14.46,14.46,0,0,1,1365.85,649.32Z" fill="#ffce7a"/>
      
       
          <path d="M1764.65,882.51c12,16.61,17.85,34.4,16.09,35.42s-8.86-15.11-26.16-31.79c-20.19-19.49-32.86-19.15-58.75-39-13-10-25-21.42-32.32-29.86l15-21.93c13.88,19.6,29.52,37.62,39.42,46.16C1738.19,858.92,1750.75,863.28,1764.65,882.51Z" fill="#e6e6e6"/>
          <path d="M1581.83,758.51c-7.65,15.92-16.45,45.48-17.81,75.79s5.85,51.62,11.6,71.67h-139.3c2.82-34.83,9.86-48.83,2.66-78.75a149.93,149.93,0,0,0-23.17-50.71,328.45,328.45,0,0,1-85.37,92c-10.44-19.28-18.49-35.89-24.31-48.45-.71-1.55-1.41-3.06-2.08-4.53a17.5,17.5,0,0,1,6.2-12.64c5.94-4.85,12.9-3.72,15.19-3.16,2.52,7.93,5.29,15.13,8,21.59.94-9.84,11.74-29,20.33-43.9,9.63-16.69,15.52-26.93,26.62-37.09a69.46,69.46,0,0,1,9.4-6.82c7-4.48,17.42-10.37,32.5-18.94,4.69-2.65,8.57-4.82,11.86-6.71,10.44,24.68,35,40.11,60.7,38.49,28.66-1.82,53-24.51,57.12-54.38,2.68,1.08,5.31,2,7.84,2.83,11.14,3.62,20.65,5,26.15,6.25,24.94,5.51,58,26.33,92.53,94.27l-15,21.93c-12.33-3.09-31.1-15-52.33-32.69C1598.89,774.29,1588.52,766.23,1581.83,758.51Z" fill="#67ffe6"/>
          <path d="M1568.9,1067.52a155.93,155.93,0,0,1,6.72,42.86c.36,38.27-15.52,60.8-39.75,112.31-10.24,21.79-24,53-38,92.16l-7.51-6.79-13.94-12.6-6.4-5.78a889.35,889.35,0,0,0,25-94.62q1.11-5.38,2.13-10.7c5.36-27.71,9-53.79,11.49-77.85a176.74,176.74,0,0,1-27.86-26.14,167.83,167.83,0,0,1-10.74-14c-40.21-58.43-35.55-131.6-34.06-155.16.11-1.81.23-3.56.37-5.26h139.3c.93,3.21,1.81,6.38,2.61,9.55,12.12,47.77,5.29,90.52-2.61,125l-86.4-87.4a772.33,772.33,0,0,1,52.42,64.51c13.49,18.58,19.37,28.5,24.18,40.89C1566.3,1059.76,1567.5,1062.9,1568.9,1067.52Z" fill="#ff4c4f"/>
          <path d="M1489.22,953.14l86.4,87.4c-1.43,6.25-2.89,12.23-4.29,17.92q-1.12,4.57-2.43,9.06c-1.4-4.62-2.6-7.76-3.08-9-4.81-12.39-10.69-22.31-24.18-40.89A772.33,772.33,0,0,0,1489.22,953.14Z" fill="#1a1a1a"/>
          <path d="M1569.64,671.13c.71,9.83-5.08,18.27-9.78,23.66-2.53-.82-5.16-1.75-7.84-2.83a104.25,104.25,0,0,1-30.17-18.42,108.18,108.18,0,0,1-18.33-20.95,92.48,92.48,0,0,0,5.67-11.16h0q.9-2.53,2.06-5.12c4.53-12.09,7.19-25.28,7.19-36,0-27.51-17.54-49.82-39.19-49.82s-39.18,22.31-39.18,49.82c0,13.9,4.47,31.93,11.69,46.39,0,0,0,0,0,0l.45.88a65.08,65.08,0,0,0,11.27,16.22l-.12.13c-.63,7.54-2.74,18.94-10.48,29.24-4.5,6-9.05,9.14-18.69,14.67-3.29,1.89-7.17,4.06-11.86,6.71-15.08,8.57-25.46,14.46-32.5,18.94-1.95-.25-11.43-1.68-17-9.79-6.64-9.66-2.51-21.15-1.57-23.54,5.26-13.38,17.86-14,29.82-24.34,8.42-7.25,30-14.33,21.19-49.44-12.26-48.79,11.11-72.41,26.45-81.58,16.94-10.13,37.73-13.09,54.8-4.67,16,7.86,23.27,22.7,28.63,42.3,7.71,28.22-.26,32.73,8.63,49.44C1551.58,652.18,1568.49,655.23,1569.64,671.13Z" fill="#6c5dff"/>
          <path d="M1552,692c-4.13,29.87-28.46,52.56-57.12,54.38-25.68,1.62-50.26-13.81-60.7-38.49,9.64-5.53,14.19-8.66,18.69-14.67,7.74-10.3,9.85-21.7,10.48-29.24,4.21,5,20.25,25.58,39.45,31.2C1524,701.36,1546.07,694.1,1552,692Z" fill="#e6e6e6"/>
          <path d="M1521.85,673.54A104.25,104.25,0,0,0,1552,692c-6,2.14-28,9.4-49.2,3.18-19.2-5.62-35.24-26.23-39.45-31.2l.12-.13c4.83,4.83,10.16,7.77,15.76,7.77,9.17,0,17.61-7.85,24.27-19A108.18,108.18,0,0,0,1521.85,673.54Z" fill="#ccc"/>
          <path d="M1518.44,600.29c0,10.73-2.66,23.92-7.19,36q-1.15,2.58-2.06,5.12h0a92.48,92.48,0,0,1-5.67,11.16c-6.66,11.14-15.1,19-24.27,19-5.6,0-10.93-2.94-15.76-7.77a65.08,65.08,0,0,1-11.27-16.22l-.45-.88s0,0,0,0c-7.22-14.46-11.69-32.49-11.69-46.39,0-27.51,17.54-49.82,39.18-49.82S1518.44,572.78,1518.44,600.29Z" fill="#e6e6e6"/>
          <path d="M1499.8,1368.06c7.57,10.92,14.69,24.8,12.49,26.54s-11.19-12.79-32-24.2c-17.92-9.81-27.26-7.68-33.56-17.94-4.27-7-5.88-17.62-1.56-25s11.41-6.34,20.29-14.83a44.7,44.7,0,0,0,11-17.19l13.94,12.6c-13,13.93-14.23,23.55-13.19,29.57C1478.92,1347.72,1487.38,1350.17,1499.8,1368.06Z" fill="#e6e6e6"/>
          <path d="M1400.3,1241.83l-3.44-23.65-1.53-10.46a366.64,366.64,0,0,0,85.42-127.35,176.74,176.74,0,0,0,27.86,26.14c-2.47,24.06-6.13,50.14-11.49,77.85-38.26,38.83-79,63-94.73,71.88Z" fill="#ff8080"/>
          <path d="M1396.86,1218.18l3.44,23.65c-27.57,13.75-34.09,26.4-35,35.41-1,10.87,6.12,16.57,5.17,32.71s-9.24,29.3-11.48,28.7c-2.51-.66,6.43-17.91,0-39.6-4.6-15.49-12.12-19.21-13.78-34.44-1.08-9.95,0-27.57,9.77-32.71,8.74-4.63,17.23,4.66,28.69,0C1390.38,1229.18,1394.42,1223.21,1396.86,1218.18Z" fill="#e6e6e6"/>
          <path d="M1325.28,653l.35-.23c-7.37,23.54-16.29,63.82-8.49,112.27a237.25,237.25,0,0,0,8.3,34.69c-2.29-.56-9.25-1.69-15.19,3.16a17.5,17.5,0,0,0-6.2,12.64c-17.55-38.54-19.81-52.15-19.93-64-.13-13.11.56-23.15,5-32.71a57.47,57.47,0,0,1,7.78-12.22,38.18,38.18,0,0,0,8-16.07l2.62-11.86A41.3,41.3,0,0,1,1325.28,653Z" fill="#e6e6e6"/>
      
    
  
</svg>
