<svg xmlns="http://www.w3.org/2000/svg" viewBox="0 0 1678.59 859.53">

      <path d="M1064.4,386.21v2a1.54,1.54,0,0,0,1.65,1.54l121.29-8.95a1.54,1.54,0,0,0,1.42-1.53h0a1.53,1.53,0,0,0-1.62-1.54l-121.29,7A1.53,1.53,0,0,0,1064.4,386.21Z" transform="translate(-0.25 -0.25)" fill="#1a1a1a"/>
      <path d="M586.91,447l1.4,1.4a1.55,1.55,0,0,0,2.26-.08L670,356.21a1.53,1.53,0,0,0-.07-2.09h0a1.54,1.54,0,0,0-2.24.06l-80.84,90.68A1.54,1.54,0,0,0,586.91,447Z" transform="translate(-0.25 -0.25)" fill="#1a1a1a"/>

        <path d="M1087.55,395.85c2-.07,3.83.42,3.41,2.55-.89,4.42-6.2,2.65-7.09,6.19s1.78,5.31-.88,9.74-25.67,42.49-54,62.84-61.07,37.18-81.43,33.64c-14.8-2.58-31,6.55-36.37,28.4-8.77-29.28-14-69.54-9.18-97.65l.19-.39a197.88,197.88,0,0,0,29.43,12.11c23,7.08,55.76,33.63,103.56-11.51s51.34-55.77,54.88-61.08,17.7-15.05,9.74,0-12.26,15.15-12.26,15.15Z" transform="translate(-0.25 -0.25)" fill="#e6e6e6"/>
        <path d="M1070.6,816.19c0,5.31-12.39,9.74-26.56,12.39s-26.55,14.17-32.75,10.62-3.54-15.93-2.65-23.89c0,0,6.11,4.58,15-7.45,6.3,6.27,17.17,2.77,24.83,2.13C1059.09,809.11,1070.6,810.88,1070.6,816.19Z" transform="translate(-0.25 -0.25)" fill="#1a1a1a"/>
        <path d="M980.64,656.45c-5.64,3.07-26.88.41-26.88.41l-.23.15a112.45,112.45,0,0,0-198.95,19.33,38.62,38.62,0,0,1-20.85-7.61c3.34,39.21,1.39,121.79,1.39,121.79l-3.18,1.13L716.79,797l-9.11,3.23s-30.09-128.35-39.83-171.72,3.54-38.95,74.35-15.94,56.65,2.66,53.11-27.44a255,255,0,0,0-10-47c1.66-7,10.71-49-.59-81.36h.88a30.59,30.59,0,0,0,13.16-3.24l.11.24s10.63,89.74,42.49,89.74c31.66,0,49.9-38.12,50.13-106,0-.44,0-.88,0-1.33v-.72c3.5,2,7.09,3.89,10.71,5.71l-.19.39c-4.82,28.11.41,68.37,9.18,97.65-2,8.19-2.5,18.19-.81,30,6.2,43.37,6.2,42.49,58.42,29.21s62.85-16.82,62,13.28-7.09,182.34-7.09,182.34l-4.86,1.42L1006.9,799l-4.46,1.3S984.71,702.73,980.64,656.45Z" transform="translate(-0.25 -0.25)" fill="#ff4c4f"/>
        <path d="M1018.82,795.48c.62,6.07,2.38,10,4.82,12.38-8.89,12-15,7.45-15,7.45.88-8-1.74-16.35-1.74-16.35Z" transform="translate(-0.25 -0.25)" fill="#e6e6e6"/>
        <path d="M882,380.74a21.56,21.56,0,0,1-8.83-6.24c-2.07-2.54-3.49-5.82-4.43-22.13-1.08-18.59.25-23.5-3.54-26.56-5.24-4.22-16.22-1.71-17.7,2.66-2.13,6.23,15,16.51,12.39,21.24a4.86,4.86,0,0,1-2.66,1.77c-3.6,1.44-7.41-.08-8.85-.88-8.28-4.6-6.06-23-8-23-.77,0-1.33,2.84-1.77,4.43-2.84,10-14.68,18.72-26.61,21.95a38.59,38.59,0,0,1-5.26,1.06c-11,1.44-14.77-3.18-22.13.89-6.82,3.77-7.47,9.91-11.51,9.73-5.54-.23-12.11-12.08-8.85-18.58,3.43-6.85,15.7-3.66,19.48-11.51,2.07-4.31-1.17-6.28.88-11.51,2.79-7.12,12.38-12.61,20.36-11.51,5,.7,6.66,3.63,10.62,2.66,3.62-.88,5.06-4,8-8,5-6.81,12.11-13,18.59-15.93,8.76-4,17.35-2.34,20.35-1.77,2.16.41,20.27,4.05,23.9,15.93,2.08,6.82-2.87,8.86-4.42,22.13-1.3,11.13.93,20.36,2.65,27.44,4,16.48,9.9,22.73,7.09,25.67C890.14,382.42,886.16,382.31,882,380.74Z" transform="translate(-0.25 -0.25)" fill="#6c5dff"/>
        <path d="M891.49,435.46v.72c0,.45,0,.89,0,1.33h-1.93c-4,1.53-17.76,5.49-31.71,1.87-11.74-3.05-20-15-23.32-18.85.5-.59,1-1.16,1.47-1.7,4.29,2.83,12.07,6.9,19.52,4.36,1.61-.54,3.92-1.65,8-7.06C870.7,422.52,880.64,429.31,891.49,435.46Z" transform="translate(-0.25 -0.25)" fill="#ccc"/>
        <path d="M889.54,437.5h1.93c-.23,67.93-18.47,106-50.13,106-31.86,0-42.49-89.74-42.49-89.74l-.11-.24c14.23-6.75,26.86-22.6,35.77-33.06,3.34,3.82,11.58,15.8,23.32,18.85C871.78,443,885.5,439,889.54,437.5Z" transform="translate(-0.25 -0.25)" fill="#e6e6e6"/>
        <path d="M863.49,416.12c-4.07,5.41-6.38,6.52-8,7.06-7.45,2.54-15.23-1.53-19.52-4.36-1.14-.75-2-1.4-2.61-1.84-9.53-7-12.92-16.89-15.93-25.67-2.06-6-5.5-24.56-5.31-37.17l0-.18c11.93-3.23,23.77-11.91,26.61-21.95.44-1.59,1-4.45,1.77-4.43,1.9.06-.32,18.42,8,23,1.44.8,5.25,2.32,8.85.88a4.86,4.86,0,0,0,2.66-1.77c2.61-4.73-14.52-15-12.39-21.24,1.48-4.37,12.46-6.88,17.7-2.66,3.79,3.06,2.46,8,3.54,26.56.94,16.31,2.36,19.59,4.43,22.13a21.56,21.56,0,0,0,8.83,6.24,177.85,177.85,0,0,1-13.26,27.39A94.52,94.52,0,0,1,863.49,416.12Z" transform="translate(-0.25 -0.25)" fill="#e6e6e6"/>
        <path d="M617.92,444.15c4.39,7.27,14.14,21.14,34,41,30.53,30.54,52.66,24.34,64.61,12.39,11.78-11.78,47.65-39.9,68.17-40.7,11.3,32.35,2.25,74.33.59,81.36-.91-2.83-1.48-4.37-1.48-4.37-4.58-11.87-25.67-8-40.72,5.32s-52.23,43.37-106.22-38.07-41.6-101.79-40.72-103.56,5.31,16.82,11.51,23.9,8.85,5.31,10.62,4.43S622,442.08,617.92,444.15Z" transform="translate(-0.25 -0.25)" fill="#e6e6e6"/>
        <path d="M733.51,815c.08,4.61,0,9.76-.16,15.35-.88,23-19.47,15-23.9,15s-15.05,3.54-34.52,5.31-12.39-4.42-8-5.31,22.13-4.42,37.18-15a25.87,25.87,0,0,0,6.68-6.91h0A36.94,36.94,0,0,0,733.51,815Z" transform="translate(-0.25 -0.25)" fill="#1a1a1a"/>
        <path d="M731.94,791.65A204.73,204.73,0,0,1,733.51,815a36.94,36.94,0,0,1-22.69,8.44c7.56-11.33,6-26.41,6-26.41Z" transform="translate(-0.25 -0.25)" fill="#e6e6e6"/>

      <line x1="541.9" y1="531.81" x2="541.9" y2="817.72" fill="none" stroke="#4d4d4d" stroke-miterlimit="10" stroke-width="3"/>
      <rect x="989.79" y="543.32" width="176.15" height="94.71" rx="12" fill="#5f83ff"/>
      <rect x="508.27" y="599.08" width="193.85" height="104.45" rx="12" fill="#5f83ff"/>
      <line x1="1255.34" y1="464.54" x2="1255.34" y2="817.72" fill="none" stroke="#666" stroke-miterlimit="10" stroke-width="3"/>
      <path d="M751.5,840.73H966.08a5.12,5.12,0,0,1,5.12,5.12v3.73a0,0,0,0,1,0,0H746.37a0,0,0,0,1,0,0v-3.73a5.12,5.12,0,0,1,5.12-5.12Z" fill="#333"/>
      <path d="M1359.21,421l-207.36,86.88-1.44-3.44a5.11,5.11,0,0,1,2.74-6.7l197.92-82.92a5.12,5.12,0,0,1,6.7,2.74Z" transform="translate(-0.25 -0.25)" fill="#ffd500"/>
      <path d="M654.09,546.52,430.91,519.31l.45-3.71a5.13,5.13,0,0,1,5.71-4.46l213,26a5.11,5.11,0,0,1,4.46,5.7Z" transform="translate(-0.25 -0.25)" fill="#ffd500"/>
      <line x1="1255.34" y1="817.72" x2="1218.16" y2="849.58" fill="none" stroke="#666" stroke-miterlimit="10" stroke-width="3"/>
      <line x1="1255.34" y1="817.72" x2="1292.52" y2="849.58" fill="none" stroke="#666" stroke-miterlimit="10" stroke-width="3"/>
      <line x1="1244.72" y1="849.58" x2="1255.34" y2="817.72" fill="none" stroke="#666" stroke-miterlimit="10" stroke-width="3"/>
      <line x1="541.9" y1="817.72" x2="504.73" y2="849.58" fill="none" stroke="#4d4d4d" stroke-miterlimit="10" stroke-width="3"/>
      <line x1="541.9" y1="817.72" x2="579.08" y2="849.58" fill="none" stroke="#4d4d4d" stroke-miterlimit="10" stroke-width="3"/>
      <line x1="531.28" y1="849.58" x2="541.9" y2="817.72" fill="none" stroke="#4d4d4d" stroke-miterlimit="10" stroke-width="3"/>
      <path d="M1124.56,641.08l79.37,207.42a2.08,2.08,0,0,0,1.93,1.33h0a2.07,2.07,0,0,0,2-2.69l-65.55-207.42a2,2,0,0,0-2-1.44h-13.83A2.06,2.06,0,0,0,1124.56,641.08Z" transform="translate(-0.25 -0.25)" fill="#ccc"/>
      <path d="M1031.64,641.08,952.27,848.5a2.08,2.08,0,0,1-1.93,1.33h0a2.07,2.07,0,0,1-2-2.69l65.54-207.42a2.07,2.07,0,0,1,2-1.44h13.83A2.06,2.06,0,0,1,1031.64,641.08Z" transform="translate(-0.25 -0.25)" fill="#ccc"/>
      <path d="M1077.67,851.6h0A2.71,2.71,0,0,1,1075,849L1070.65,641a2.71,2.71,0,0,1,2.71-2.76H1082a2.71,2.71,0,0,1,2.71,2.76L1080.38,849A2.71,2.71,0,0,1,1077.67,851.6Z" transform="translate(-0.25 -0.25)" fill="#ccc"/>
      <path d="M651.88,706.16l79.38,143.3a2.19,2.19,0,0,0,1.93.92h0c1.39,0,2.38-.94,2-1.86l-65.54-143.3a2.12,2.12,0,0,0-2-1H653.81C652.36,704.22,651.37,705.22,651.88,706.16Z" transform="translate(-0.25 -0.25)" fill="#ccc"/>
      <path d="M559,706.16l-79.38,143.3a2.2,2.2,0,0,1-1.93.92h0c-1.39,0-2.38-.94-2-1.86l65.54-143.3a2.12,2.12,0,0,1,2-1H557C558.48,704.22,559.48,705.22,559,706.16Z" transform="translate(-0.25 -0.25)" fill="#ccc"/>
      <path d="M605,851.6h0c-1.48,0-2.68-.81-2.71-1.83L598,706.13c0-1,1.19-1.91,2.71-1.91h8.62c1.52,0,2.74.86,2.71,1.91l-4.31,143.64C607.68,850.79,606.47,851.6,605,851.6Z" transform="translate(-0.25 -0.25)" fill="#ccc"/>
      <circle cx="858.79" cy="717.69" r="104.45" fill="#67ffe6"/>

        <path d="M417.53,365l-30.72,11q-.92-2.83-1.95-5.85c-7.68-22.3-10.62-22.76-17.79-46.07a260,260,0,0,1-7.72-29.94c2.51-.82,5.22-1.77,8.18-2.9,10.29-3.93,19.85-10.16,27.32-15.59l0,.08s5.46,6.39,12.76,27.82S415,343.19,417.53,365Z" transform="translate(-0.25 -0.25)" fill="#e6e6e6"/>
        <rect x="363.16" y="853.58" width="37.47" height="5.56" fill="#1a1a1a"/>
        <path d="M397.77,844.23a6.66,6.66,0,0,1,3.11,5.66v3.94H363.41v-3.94a6.75,6.75,0,0,1,6.71-6.72h24.06A6.58,6.58,0,0,1,397.77,844.23Z" transform="translate(-0.25 -0.25)" fill="#666"/>
        <path d="M392.78,830.5l5,13.73a6.58,6.58,0,0,0-3.59-1.06H370.12a6.61,6.61,0,0,0-4,1.37l-2.67-14Z" transform="translate(-0.25 -0.25)" fill="#e6e6e6"/>
        <path d="M359.35,294.09a100.72,100.72,0,0,1-17.19,4.11c-6-10.39-11.25-22-11.7-23.84s-1.9-1.63-1.9-1.63,1.2,12.15,2,28.12,8.14,157.58,8.14,157.58h-148s8.07-121.81,8.68-148.37,0-34.59,0-34.59a131.64,131.64,0,0,1-7.74,22.95c-5.73,13.29-7.64,13.79-7.64,13.79A150.14,150.14,0,0,1,149.53,304a162.36,162.36,0,0,1-22.21-9.9c-3.57-1.92-6.81-3.84-9.72-5.68.86-2,2.16-4.92,3.82-8.44,7.72-16.31,16.51-41,34.78-55.24,12.24-9.56,23.57-12.91,36.93-23.53,3.92,6.55,18.23,28.68,44.45,35.08,4.81,1.17,14,3.3,25.08.68,12.85-3.06,21.16-10.86,29.83-19a115.91,115.91,0,0,0,17-20c3.6,2.85,7.75,5.86,12.52,9,26.85,17.65,34.94,13.79,52.57,27.39,8.75,6.73,19.43,17.46,28.49,35.05-2.31,1.76-5.07,3.89-8.2,6.16-7.47,5.43-17,11.66-27.32,15.59C364.57,292.32,361.86,293.27,359.35,294.09Z" transform="translate(-0.25 -0.25)" fill="#67ffe6"/>
        <path d="M348.14,521.12,394.9,830.5H362.6L276.26,547.62a12.38,12.38,0,0,0-23.25,0L166.67,830.5H134.38l56.24-372.07h72.62v71.13c21.06-20.47,28.68-25.18,42-28.27,18.1-4.21,28.59,5.41,42.49,19.89Z" transform="translate(-0.25 -0.25)" fill="#ff4c4f"/>
        <path d="M338.66,458.43l9.48,62.69-.44.06c-13.9-14.48-24.39-24.1-42.49-19.89-13.29,3.09-20.91,7.8-42,28.27V458.43Z" transform="translate(-0.25 -0.25)"/>
        <path d="M329.84,114c3.81,22-9.3,41.23-14.9,49.45-9.82,14.4-12.77,16.23-20.27,20.93a91.51,91.51,0,0,1-6.09-7.47,107.05,107.05,0,0,1-12.24-21.62,98.69,98.69,0,0,0,11.3-24.14c4.46-13.6,9.4-28.71,5.78-48.25-2-10.9-4.45-24-17.37-33.56-2.76-2-13.18-9.74-27.31-9.08-17.81.82-28.81,14.32-33.1,19.57-13.38,16.42-12.37,34.36-11.59,48.25a94.19,94.19,0,0,0,14.08,44.05c2.09,3.38,4.34,7,6.8,10.41l-1.2.89a119.36,119.36,0,0,1-22.5,30.69,103.47,103.47,0,0,1-8.1,7.16c-13.36,10.62-24.69,14-36.93,23.53-18.27,14.27-27.06,38.93-34.78,55.24-1.66,3.52-3,6.45-3.82,8.44,2.91,1.84,6.15,3.76,9.72,5.68-1.19,10.44-10.78,19.45-15.57,34-6.2,18.84-10.22,30.11-9.15,43a14.2,14.2,0,0,0,.46,2.65l-.46.33a77.77,77.77,0,0,1-40,27.42c-8.91,2.52-25.55,7.24-41.37-.77C10.51,395.4-1.65,383.28.5,371.9c2.27-12.12,20.4-10.23,28.14-26.63s-.47-25.5,5-43.38c5.35-17.6,19.16-28,40.55-44.12,30.77-23.18,46-22.15,51.31-38,4.71-14.05-5.56-19.67,0-38,1.77-5.89,4.28-10.08,20.68-30.43,25.14-31.2,24.68-28.07,28.14-34.24,14.52-25.94-1.92-37.38,10.75-59.35,10.81-18.73,36-33.4,62.06-31.95,24.57,1.36,40.52,16.54,43,19,5.57,5.46,11.81,5,17.38,28.9C314.93,105.51,328.31,105.18,329.84,114Z" transform="translate(-0.25 -0.25)" fill="#6c5dff"/>
        <path d="M309.47,198a115.91,115.91,0,0,1-17,20c-8.67,8.12-17,15.92-29.83,19-11.07,2.62-20.27.49-25.08-.68-26.22-6.4-40.53-28.53-44.45-35.08a103.47,103.47,0,0,0,8.1-7.16,119.36,119.36,0,0,0,22.5-30.69c3.73,5.28,14.83,19,22.1,24.29C270.9,205.8,301.75,199.49,309.47,198Z" transform="translate(-0.25 -0.25)" fill="#e6e6e6"/>
        <path d="M294.67,184.35A121.65,121.65,0,0,0,309.47,198c-7.72,1.49-38.57,7.8-63.64-10.31-7.27-5.25-18.37-19-22.1-24.29l1.2-.89c5.39,7.38,11.91,13.66,20.49,14.06,8.86.41,15.88-5.63,21.53-10.48a51.47,51.47,0,0,0,9.39-10.83,107.05,107.05,0,0,0,12.24,21.62A91.51,91.51,0,0,0,294.67,184.35Z" transform="translate(-0.25 -0.25)" fill="#ccc"/>
        <path d="M276.34,155.26A51.47,51.47,0,0,1,267,166.09c-5.65,4.85-12.67,10.89-21.53,10.48-8.58-.4-15.1-6.68-20.49-14.06-2.46-3.4-4.71-7-6.8-10.41a94.19,94.19,0,0,1-14.08-44c-.78-13.89-1.79-31.83,11.59-48.25,4.29-5.25,15.29-18.75,33.1-19.57,14.13-.66,24.55,7,27.31,9.08C289,58.88,291.4,72,293.42,82.87c3.62,19.54-1.32,34.65-5.78,48.25A98.69,98.69,0,0,1,276.34,155.26Z" transform="translate(-0.25 -0.25)" fill="#e6e6e6"/>
        <rect x="127.8" y="853.58" width="37.48" height="5.56" fill="#1a1a1a"/>
        <path d="M162.87,844.55a6.64,6.64,0,0,1,2.66,5.34v3.94H128.05v-3.94a6.66,6.66,0,0,1,3.11-5.65,6.57,6.57,0,0,1,3.61-1.07h24A6.6,6.6,0,0,1,162.87,844.55Z" transform="translate(-0.25 -0.25)" fill="#666"/>
        <path d="M165.53,830.5l-2.66,14a6.6,6.6,0,0,0-4.05-1.38h-24a6.57,6.57,0,0,0-3.61,1.07l5-13.74Z" transform="translate(-0.25 -0.25)" fill="#e6e6e6"/>
   
        <path d="M669.94,303.29c3.16,8.24-1.77,19.58-14.07,20.12s-9.57-11.9-23.33-3.58-28,20.71-34.78,20.73-12.22-10.86-33.44-2.81c-2.55.74-5.42,1.71-8.65,3-32.85,13-214.66,85.51-219.75,87.47a1.07,1.07,0,0,0-.24.12v0l-10.53,3.87a.62.62,0,0,0-.63-.1c-5.94,2.28-6.7,2.46-11.76-11.49s-4-15.55-.22-17,11.38-4.14,11.38-4.14l29.55-11.44c21.58-8.26,181.06-64.31,200.28-72.23s6-16.21,21-16.37,56.16-4.35,70.75-5.44S666.78,295,669.94,303.29Z" transform="translate(-0.25 -0.25)" fill="#ffce7a"/>
        <path d="M651.74,284c9-.52,5,6.64,5,6.64l-10.52.84S642.77,284.52,651.74,284Z" transform="translate(-0.25 -0.25)"/>
        <path d="M637.29,285c9-.53,5,6.64,5,6.64l-10.52.83S628.32,285.55,637.29,285Z" transform="translate(-0.25 -0.25)"/>
        <path d="M622.86,286.07c9-.52,5,6.64,5,6.64l-10.52.84S613.88,286.59,622.86,286.07Z" transform="translate(-0.25 -0.25)"/>
        <path d="M608.41,287.11c9-.52,5,6.64,5,6.64l-10.52.83S599.44,287.63,608.41,287.11Z" transform="translate(-0.25 -0.25)"/>
        <path d="M594,288.15c9-.53,5,6.64,5,6.64l-10.53.83S585,288.67,594,288.15Z" transform="translate(-0.25 -0.25)" fill="#1a1a1a"/>
        <path d="M579.52,289.19c9-.52,5,6.64,5,6.64l-10.52.83S570.55,289.71,579.52,289.19Z" transform="translate(-0.25 -0.25)" fill="#1a1a1a"/>
        <path d="M364.73,457.62c6.17-2.88,19,8.77,4.3,21.93-16.56,14.85-45.31,11.6-55.3,11.15s-22,4.18-40.75,26.92-46.2,38.16-66.61,36.06c-20.64-2.09-36.38-5-60-66.32-7.48-19.37-35-97.23,32.1-110.68s61.11,21.63,114.25-25.4,87.25-10,64-3.53c-40.07,11.25-25.5,48.84-3.19,40.3l-29.55,11.44s5.57-22.3-13-9.32c-24.23,16.91-35.68,12.12-67.14,14.86-46.53,4.05-33,32-33,32s6.8-4,8.34,0c1.62,4.25,11.63,30.62,12.87,33.85,1.47,3.86-5.76,5.61-5.76,5.61s10.83,17.18.48,41.36c-12.22,28.58,4.91,26.06,16.91,16.24s24.31-23.63,35.77-34,21.83-17.43,35.71-16c17.77,1.82,29.72.69,40.4-4.05,15.48-6.91,16.17-17.57,2.77-13.85-32.75,9.07-29.63-31.18-33.06-33.93l10.53-3.87C330.91,431.54,333.65,472.14,364.73,457.62Z" transform="translate(-0.25 -0.25)" fill="#5f83ff"/>
        <path d="M325.14,432.22c3.43,2.75.31,43,33.06,33.93,13.4-3.72,12.71,6.94-2.77,13.85-10.68,4.74-22.63,5.87-40.4,4.05-13.88-1.4-24.25,5.68-35.71,16s-23.75,24.18-35.77,34-29.13,12.34-16.91-16.24c10.35-24.18-.48-41.36-.48-41.36s7.23-1.75,5.76-5.61c-1.24-3.23-11.25-29.6-12.87-33.85-1.54-4-8.34,0-8.34,0s-13.48-27.93,33-32c31.46-2.74,42.91,2.05,67.14-14.86,18.58-13,13,9.32,13,9.32s-7.58,2.68-11.38,4.14-4.85,3.05.22,17,5.82,13.77,11.76,11.49A.62.62,0,0,1,325.14,432.22Zm-18,11.38a5.46,5.46,0,0,0,3.13-7.05l-10-26.15a5.46,5.46,0,0,0-10.19,3.91l10,26.14A5.46,5.46,0,0,0,307.18,443.6ZM277.37,455a5.45,5.45,0,0,0,3.13-7l-10-26.14a5.45,5.45,0,0,0-10.19,3.89l10,26.14A5.44,5.44,0,0,0,277.37,455Zm-29.7,30.58a5.57,5.57,0,1,0-7.2-3.21A5.58,5.58,0,0,0,247.67,485.59Zm-.81,25.5a5.58,5.58,0,1,0-7.21-3.23A5.59,5.59,0,0,0,246.86,511.09Zm-3.08-43.65a5.46,5.46,0,0,0,4.48-6.27l-4.55-27.62A5.45,5.45,0,1,0,233,435.32l4.54,27.62A5.47,5.47,0,0,0,243.78,467.44ZM237,532.5a5.58,5.58,0,1,0-7.2-3.23A5.6,5.6,0,0,0,237,532.5Z" transform="translate(-0.25 -0.25)" fill="#fff"/>
        <path d="M310.31,436.55a5.45,5.45,0,1,1-10.18,3.9l-10-26.14a5.46,5.46,0,0,1,10.19-3.91Z" transform="translate(-0.25 -0.25)" fill="#1a1a1a"/>
        <path d="M280.5,448a5.45,5.45,0,1,1-10.18,3.89l-10-26.14a5.45,5.45,0,0,1,10.19-3.89Z" transform="translate(-0.25 -0.25)" fill="#1a1a1a"/>
        <path d="M250.88,478.39a5.57,5.57,0,1,1-7.2-3.21A5.58,5.58,0,0,1,250.88,478.39Z" transform="translate(-0.25 -0.25)" fill="#1a1a1a"/>
        <path d="M250.07,503.87a5.58,5.58,0,1,1-7.2-3.2A5.59,5.59,0,0,1,250.07,503.87Z" transform="translate(-0.25 -0.25)" fill="#1a1a1a"/>
        <path d="M248.26,461.17a5.46,5.46,0,1,1-10.77,1.77L233,435.32a5.45,5.45,0,1,1,10.76-1.77Z" transform="translate(-0.25 -0.25)" fill="#1a1a1a"/>
        <path d="M240.17,525.3a5.58,5.58,0,1,1-7.2-3.22A5.6,5.6,0,0,1,240.17,525.3Z" transform="translate(-0.25 -0.25)" fill="#1a1a1a"/>

        <path d="M514.86,349.57c.62,6-7.85,11.2-17.34,17.33-13.38,8.66-25.5,16.51-33.29,22.81-23.87,19.32-25.47,39.06-42,40.15A24,24,0,0,1,410,427.12c-8.14-4-11.36-11-14.78-22.46l34.49-13.78c33-16.7,49.84-29.9,59.2-39.48,3.08-3.16,11.28-12,18.7-10A10.22,10.22,0,0,1,514.86,349.57Z" transform="translate(-0.25 -0.25)" fill="#e6e6e6"/>
        <path d="M141.32,370.09a108.53,108.53,0,0,1,13,10.24c8.53,7.83,12.21,13.76,18.54,22.14,8.14,10.78,19.86,26.35,37.54,40.2,14.23,11.14,21.35,16.71,31.77,19.72,7.32,2.12,17,3.45,17.57,7.71.38,2.77-3.27,5.3-3.61,5.54-4.25,2.86-10.08,1.94-18.53-1.2-15.69-5.85-24.31-12.77-24.31-12.77-5.18-4.15-22.07-15-55.84-36.82-20.36-13.13-28.49-17.07-39.95-29.12-13.83-14.53-14.74-22.17-14.92-24.3-1.07-12.88,3-24.15,9.15-43,4.83-14.7,14.53-23.73,15.6-34.29A163.69,163.69,0,0,0,149.53,304a157.87,157.87,0,0,0,22.33,6.28h0c-1.24,7.44-3.73,19.69-9.11,30.77C156.86,353.3,146.75,364.39,141.32,370.09Z" transform="translate(-0.25 -0.25)" fill="#e6e6e6"/>

        <path d="M1287.92,98.71A19.11,19.11,0,0,1,1265.15,127a14.51,14.51,0,0,0-12.23-19.22l-.15,0a19.11,19.11,0,0,1,35.15-9Z" transform="translate(-0.25 -0.25)" fill="#1a1a1a"/>
        <path d="M1263.65,114.34a14.53,14.53,0,0,1,1.5,12.64l-63.44,34.54-5.38-8.18,56.44-44.27.15-1.31A14.47,14.47,0,0,1,1263.65,114.34Z" transform="translate(-0.25 -0.25)" fill="#ffce7a"/>
 
        <path d="M1662.44,347.53c12,16.61,17.85,34.4,16.1,35.42s-8.87-15.11-26.16-31.8c-20.2-19.48-32.87-19.14-58.76-39-13-10-25-21.42-32.31-29.86l15-21.93c13.87,19.6,29.51,37.62,39.42,46.16C1636,323.94,1648.54,328.3,1662.44,347.53Z" transform="translate(-0.25 -0.25)" fill="#e6e6e6"/>
        <path d="M1479.63,223.53c-7.65,15.92-16.45,45.48-17.82,75.79s5.85,51.62,11.6,71.67H1334.12c2.81-34.83,9.86-48.83,2.65-78.76a150.15,150.15,0,0,0-23.16-50.7,328.26,328.26,0,0,1-85.37,92c-10.45-19.27-18.5-35.88-24.31-48.44q-1.08-2.32-2.08-4.53A17.52,17.52,0,0,1,1208,267.9c6-4.85,12.91-3.72,15.19-3.16,2.53,7.93,5.3,15.13,8,21.59,1-9.84,11.74-29,20.33-43.9,9.63-16.69,15.53-26.93,26.63-37.09a68.6,68.6,0,0,1,9.39-6.82c7-4.48,17.42-10.37,32.51-18.94,4.68-2.65,8.57-4.82,11.86-6.71,10.44,24.68,35,40.11,60.7,38.49,28.66-1.82,53-24.52,57.12-54.39,2.68,1.09,5.3,2,7.83,2.84,11.15,3.62,20.65,5,26.15,6.25,25,5.51,58,26.33,92.54,94.27l-15,21.93c-12.33-3.09-31.11-15-52.33-32.69C1496.68,239.31,1486.31,231.25,1479.63,223.53Z" transform="translate(-0.25 -0.25)" fill="#67ffe6"/>
        <path d="M1466.69,532.54a155.16,155.16,0,0,1,6.72,42.86c.37,38.27-15.51,60.8-39.74,112.31-10.24,21.79-24,53-38,92.16l-7.52-6.79-13.94-12.6-6.4-5.78a887,887,0,0,0,25-94.62q1.11-5.39,2.14-10.7c5.35-27.71,9-53.79,11.49-77.85a176.31,176.31,0,0,1-27.87-26.14,167.83,167.83,0,0,1-10.74-14c-40.2-58.43-35.55-131.6-34.06-155.16.11-1.81.24-3.56.38-5.26h139.29c.93,3.21,1.81,6.38,2.61,9.55,12.13,47.77,5.3,90.52-2.61,125L1387,418.15a771.81,771.81,0,0,1,52.42,64.52c13.49,18.58,19.38,28.5,24.19,40.89C1464.09,524.78,1465.29,527.92,1466.69,532.54Z" transform="translate(-0.25 -0.25)" fill="#ff4c4f"/>
        <path d="M1387,418.15l86.4,87.41c-1.42,6.25-2.89,12.23-4.29,17.92q-1.12,4.57-2.43,9.06c-1.4-4.62-2.6-7.76-3.07-9-4.81-12.39-10.7-22.31-24.19-40.89A771.81,771.81,0,0,0,1387,418.15Z" transform="translate(-0.25 -0.25)" fill="#1a1a1a"/>
        <path d="M1467.43,136.15c.72,9.83-5.07,18.27-9.78,23.66-2.53-.82-5.15-1.75-7.83-2.84a103.73,103.73,0,0,1-30.17-18.41,108.61,108.61,0,0,1-18.34-21,92.52,92.52,0,0,0,5.68-11.16h0q.9-2.53,2-5.12c4.54-12.09,7.2-25.28,7.2-36,0-27.51-17.54-49.82-39.19-49.82s-39.19,22.31-39.19,49.82c0,13.9,4.47,31.93,11.7,46.39v0l.45.88a65.34,65.34,0,0,0,11.27,16.22l-.12.13c-.63,7.54-2.74,18.94-10.48,29.24-4.5,6-9,9.14-18.68,14.67-3.29,1.89-7.18,4.06-11.86,6.71-15.09,8.57-25.47,14.46-32.51,18.94-2-.25-11.43-1.68-17-9.79-6.65-9.66-2.52-21.16-1.57-23.54,5.26-13.38,17.86-14,29.81-24.34,8.43-7.25,30-14.34,21.19-49.44C1307.8,42.62,1331.18,19,1346.52,9.83c16.93-10.13,37.73-13.09,54.79-4.67,16,7.86,23.27,22.7,28.64,42.3,7.71,28.22-.27,32.73,8.62,49.44C1449.38,117.2,1466.29,120.25,1467.43,136.15Z" transform="translate(-0.25 -0.25)" fill="#6c5dff"/>
        <path d="M1449.82,157c-4.13,29.87-28.46,52.57-57.12,54.39-25.69,1.62-50.26-13.81-60.7-38.49,9.63-5.53,14.18-8.66,18.68-14.67,7.74-10.3,9.85-21.7,10.48-29.24,4.21,5,20.26,25.58,39.46,31.2C1421.82,166.38,1443.86,159.12,1449.82,157Z" transform="translate(-0.25 -0.25)" fill="#e6e6e6"/>
        <path d="M1419.65,138.56A103.73,103.73,0,0,0,1449.82,157c-6,2.15-28,9.41-49.2,3.19-19.2-5.62-35.25-26.24-39.46-31.2l.12-.13c4.83,4.83,10.16,7.76,15.77,7.76,9.17,0,17.6-7.84,24.26-19A108.61,108.61,0,0,0,1419.65,138.56Z" transform="translate(-0.25 -0.25)" fill="#ccc"/>
        <path d="M1416.24,65.31c0,10.73-2.66,23.92-7.2,36q-1.15,2.58-2,5.12h0a92.52,92.52,0,0,1-5.68,11.16c-6.66,11.14-15.09,19-24.26,19-5.61,0-10.94-2.93-15.77-7.76A65.34,65.34,0,0,1,1350,112.61l-.45-.88v0c-7.23-14.46-11.7-32.49-11.7-46.39,0-27.51,17.55-49.82,39.19-49.82S1416.24,37.8,1416.24,65.31Z" transform="translate(-0.25 -0.25)" fill="#e6e6e6"/>
        <path d="M1397.59,833.08c7.57,10.92,14.69,24.8,12.49,26.54s-11.18-12.79-32-24.2c-17.92-9.81-27.26-7.68-33.56-17.94-4.28-7-5.89-17.62-1.56-25s11.41-6.34,20.29-14.83a44.66,44.66,0,0,0,11-17.19l13.94,12.6c-13,13.93-14.22,23.55-13.18,29.57C1376.71,812.74,1385.17,815.19,1397.59,833.08Z" transform="translate(-0.25 -0.25)" fill="#e6e6e6"/>
        <path d="M1298.09,706.85l-3.44-23.65-1.52-10.46a366.42,366.42,0,0,0,85.41-127.35,176.31,176.31,0,0,0,27.87,26.14c-2.47,24.06-6.14,50.14-11.49,77.85-38.26,38.83-79,63-94.73,71.88Z" transform="translate(-0.25 -0.25)" fill="#ff8080"/>
        <path d="M1294.65,683.2l3.44,23.65c-27.57,13.75-34.09,26.4-34.95,35.41-1.05,10.87,6.11,16.57,5.16,32.71s-9.23,29.3-11.47,28.7c-2.51-.66,6.42-17.91,0-39.6-4.6-15.49-12.13-19.21-13.78-34.44-1.09-10,0-27.57,9.76-32.71,8.74-4.63,17.23,4.66,28.7,0C1288.18,694.2,1292.21,688.23,1294.65,683.2Z" transform="translate(-0.25 -0.25)" fill="#e6e6e6"/>
        <path d="M1223.07,118l.35-.23c-7.36,23.54-16.29,63.82-8.49,112.27a238.54,238.54,0,0,0,8.3,34.69c-2.28-.56-9.24-1.69-15.19,3.16a17.52,17.52,0,0,0-6.19,12.64c-17.56-38.54-19.82-52.15-19.94-64-.13-13.11.56-23.15,5-32.71a56.83,56.83,0,0,1,7.78-12.22,38.16,38.16,0,0,0,8-16.07l2.63-11.86A41.25,41.25,0,0,1,1223.07,118Z" transform="translate(-0.25 -0.25)" fill="#e6e6e6"/>

</svg>
