<svg xmlns="http://www.w3.org/2000/svg" viewBox="0 0 780.41 3256.13">

    <rect x="680.41" y="2224.9" width="25" height="400" fill="#6c5dff"/>
    <rect x="132.5" y="2490.63" width="25" height="400" fill="#ff4f89"/>
    <rect x="132.5" y="533.23" width="25" height="400" fill="#6c5dff"/>
    <rect x="400" y="682.98" width="25" height="2160" fill="#65e8ff"/>
    <rect x="730.41" y="1497.23" width="50" height="400" fill="#6c5dff"/>
    <rect x="630.41" y="1397.23" width="50" height="600" fill="#ff4c4f"/>
    <rect x="559.92" y="933.23" width="35" height="1200" fill="#67ffe6"/>
    <rect x="527.14" y="835.17" width="32.78" height="1680" fill="#9d5aff"/>
    <rect x="457.14" y="1081.05" width="35" height="1200" fill="#ff52c2"/>
    <rect x="425" y="453.04" width="32.14" height="2160" fill="#9d5aff"/>
    <rect x="375" y="856.13" width="25" height="2400" fill="#6c5dff"/>
    <rect x="350" width="25" height="2400" fill="#ff4c4f"/>
    <rect x="325" y="1013.87" width="25" height="1920" fill="#ff55f8"/>
    <rect x="300" y="1464.29" width="25" height="800" fill="#6c5dff"/>
    <rect x="230" y="1124.87" width="35" height="1200" fill="#67ffe6"/>
    <rect x="195" y="1413.37" width="35" height="600" fill="#ff52c2"/>
    <rect x="95" y="1282.53" width="50" height="600" fill="#9d5aff"/>
    <rect y="1611.73" width="50" height="400" fill="#ff4f89"/>

</svg>
