<svg xmlns="http://www.w3.org/2000/svg" viewBox="0 0 1209.09 1209.09">
      <path d="M1209.34,1061.86v147.48H194V843.43a89.87,89.87,0,0,1,99.59,33.71l139.44,195.39a89.85,89.85,0,0,0,120.88,24L803.1,940.32a89.9,89.9,0,0,1,80.83-7.38Z" transform="translate(-0.25 -0.25)" fill="#ff4c4f"/>
      <path d="M1209.34.25V1061.86L883.93,932.94a89.9,89.9,0,0,0-80.83,7.38L554,1096.48a89.85,89.85,0,0,1-120.88-24L293.63,877.14A89.87,89.87,0,0,0,194,843.43V.25Zm-72.56,91.46a20.5,20.5,0,0,0-16.1-33.19h-46.15a20.48,20.48,0,0,0-16.1,7.8l-7,8.94a20.52,20.52,0,0,1-32.2,0l-7-8.94a20.47,20.47,0,0,0-16.1-7.8H949.65a20.49,20.49,0,0,0-16.1,33.19l85.51,108.42a20.52,20.52,0,0,0,32.2,0Zm-364,512.22A170.44,170.44,0,1,0,602.38,774.36,170.44,170.44,0,0,0,772.81,603.93Z" transform="translate(-0.25 -0.25)" fill="#5f83ff"/>
      <path d="M1120.68,58.52a20.5,20.5,0,0,1,16.1,33.19l-85.52,108.42a20.52,20.52,0,0,1-32.2,0L933.55,91.71a20.49,20.49,0,0,1,16.1-33.19H996a20.47,20.47,0,0,1,16.1,7.8l7,8.94a20.52,20.52,0,0,0,32.2,0l7-8.94a20.48,20.48,0,0,1,16.1-7.8Z" transform="translate(-0.25 -0.25)" fill="#ff4c4f"/>
      <path d="M194,843.43v365.91H20.26a20,20,0,0,1-20-20V20.26a20,20,0,0,1,20-20H194Z" transform="translate(-0.25 -0.25)" fill="#333"/>
    <path d="M1058.43,66.32l-7,8.94a20.52,20.52,0,0,1-32.2,0l-7-8.94a20.47,20.47,0,0,0-16.1-7.8H949.65a20.49,20.49,0,0,0-16.1,33.19l85.51,108.42a20.52,20.52,0,0,0,32.2,0l85.52-108.42a20.5,20.5,0,0,0-16.1-33.19h-46.15A20.48,20.48,0,0,0,1058.43,66.32Z" transform="translate(-0.25 -0.25)" fill="none" stroke="#000" stroke-miterlimit="10" stroke-width="3"/>
</svg>
