<svg xmlns="http://www.w3.org/2000/svg" viewBox="0 0 780.41 3256.13">
      <rect x="680.41" y="2224.9" width="25" height="400" fill="#6c5dff"/>
      <rect x="730.41" y="1497.23" width="50" height="400" fill="#6c5dff"/>
      <rect x="132.5" y="2490.63" width="25" height="400" fill="#ff4f89"/>
      <rect x="132.5" y="533.23" width="25" height="400" fill="#6c5dff"/>
      <rect x="630.41" y="1397.23" width="50" height="600" fill="#ff4c4f"/>
      <rect x="559.92" y="933.23" width="35" height="1200" fill="#67ffe6"/>
      <rect x="527.14" y="835.17" width="32.78" height="1680" fill="#9d5aff"/>
      <rect x="425" y="453.04" width="32.14" height="2160" fill="#9d5aff"/>
      <rect x="375" y="856.13" width="25" height="2400" fill="#6c5dff"/>
      <rect x="350" width="25" height="2400" fill="#ff4c4f"/>
      <rect x="195" y="1413.37" width="35" height="600" fill="#ff52c2"/>
      <rect x="457.14" y="1081.05" width="35" height="1200" fill="#ff52c2"/>
      <rect x="400" y="682.98" width="25" height="2160" fill="#65e8ff"/>
      <rect x="95" y="1282.53" width="50" height="600" fill="#9d5aff"/>
      <rect x="325" y="1013.87" width="25" height="1920" fill="#ff55f8"/>
      <rect x="300" y="1464.29" width="25" height="800" fill="#6c5dff"/>
      <rect x="230" y="1124.87" width="35" height="1200" fill="#67ffe6"/>
      <rect y="1611.73" width="50" height="400" fill="#ff4f89"/>
      <path d="M201.39,1740.59c-8.93-18.73-10.61-26.94-10.18-35.23.58-11,5-24.44,10.44-24.79,3.46-.22,6.37,4.87,8.35,8.35,9.3,16.3,1.2,25.31,8.87,42.53,4.15,9.31,8.46,11,9.14,19.58.55,7-1.86,11.28.78,15.39,2.88,4.49,9.59,5.35,14.86,5.37h0a25.17,25.17,0,0,1-9.39,6.63,24.74,24.74,0,0,1-10.47,1.72A326.25,326.25,0,0,1,201.39,1740.59Z" fill="#fff"/>
      <path d="M223.8,1780.15a24.74,24.74,0,0,0,10.47-1.72,25.17,25.17,0,0,0,9.39-6.63,27.44,27.44,0,0,0,1.79-2.28,306.89,306.89,0,0,0,29.79,33.79c4.68,4.58,8.82,8.33,12.57,11.52,15.36,13.08,24.2,16.74,36.79,29,10.7,10.36,39.51,41.83,41.36,84.93,1,23.17-5.24,63-30.24,72.48-1.25.48-13.25,4.85-24.9-.44a28.62,28.62,0,0,1-6.78-4.35c-19.37-16.62-19.73-58.68-19.88-76.38-.09-10.1,2.44-24.42,3.07-29.72h0c-.91-.75-1.85-1.56-2.82-2.42-12.73-11.25-21.71-24.3-35.4-45.87a317.07,317.07,0,0,1-30.69-62.7A24.69,24.69,0,0,0,223.8,1780.15Z" fill="#333"/>
      <path d="M287.81,1814.83c8-5.08,10.3-10,11-13.49.4-2.14.22-5.25-.13-11.48-.38-6.67-1-9.31.9-11.73a8.59,8.59,0,0,1,5.54-3c6-.63,11.32,6,12.26,7.09,14.6,16.63,66.7,15,90.17,13.35,5.92-.42,10-.85,11.24-1a88.32,88.32,0,0,1,11.6-.44c4.41.1,6.61.16,8.48.89,5.11,2,7.05,8.25,9.37,16.74,4.63,16.93,7.26,26.55,7.89,33.65a2.29,2.29,0,0,0,0,.25l.09,1.34c0,.54,0,1.06,0,1.58,0,10.52-2,8.77-3.35,25.44-1.63,19.47,1.1,21.33-1.34,33.7-2.32,11.77-4.88,10.54-9.6,26.78-4.44,15.32-2.92,19-6.91,32.81-5.18,17.87-8.94,23.88-11.39,27a54.45,54.45,0,0,1-13.26,11.9h0c-.3.2-.61.39-.92.58-18.66,11.38-28.29,1.37-69.18,5.9-5.88.65-13,1.67-20.46-1.35-.77-.31-1.55-.67-2.33-1.07-7.19-3.72-11.29-9.86-13.46-13.91a28.62,28.62,0,0,0,6.78,4.35c11.65,5.29,23.65.92,24.9.44,25-9.51,31.23-49.31,30.24-72.48-1.85-43.1-30.66-74.57-41.36-84.93C312,1831.57,303.17,1827.91,287.81,1814.83Z" fill="#1a1a1a"/>
      <path d="M317.35,1782.25c-.94-1.07-6.22-7.72-12.26-7.09a386.84,386.84,0,0,1,28.47-114.38c7.92-18.57,18.47-38.51,28.3-71.85,6.6-22.38,15.29-26.73,17.24-39.64,1.21,2.81,2.62,5.76,4.26,8.8,3.81,7.11,8.51,29.74,29.25,35.05a45.83,45.83,0,0,1,10.09,3.55c4.71,2.51,4.59,4.8,10.17,7.56-20.95,33.66-13.21,67-15.14,86.68-1.49,15.14-6.07,32.21-10.21,68.62-1.36,12,1,29.48,0,36C384.05,1797.28,332,1798.88,317.35,1782.25Z" fill="#1a1a1a"/>
      <path d="M321.33,2069.78a4.53,4.53,0,0,1-.44-2.78c1.25-9.77.34-19.72,1.49-29.5a64.5,64.5,0,0,0-2.55-26.12c7.45,3,14.58,2,20.46,1.35,40.89-4.53,50.52,5.48,69.18-5.9.31-.19.62-.38.92-.58h0a124,124,0,0,1,20.78,15.44c8.6,7.91,13.9,12.79,17,21.2,3.19,8.75,2.15,16.35,1.16,23.52a71.84,71.84,0,0,1-40.48,55.12c-5.56,2.61-17.2,7.9-32.76,6.56-7.41-.64-15.91-1.09-23.13-6.94-3.16-2.56-2.05-2.86-13.11-23.9,0,0-11.6-22.06-17.35-26.22A3.8,3.8,0,0,1,321.33,2069.78Z" fill="#1a1a1a"/>
      <path d="M383.36,1558.09c-1.64-3-3.05-6-4.26-8.8,22-8.76,41.55-23.25,52.95-32.24l1.82-1.45c35.43-28.26,31.15-39.68,59.13-61.52,5.4-4.21,14.21-10.34,16.44-20.95a24.28,24.28,0,0,0,.5-5.63c5.63.43,9,2.32,11.12,4,4.45,3.64,4.69,7.86,9.7,11.54a19.66,19.66,0,0,0,8.15,3.39l-1.36.47c-15.18,5.29-27.37,21.92-31,27-17.7,24.86-20.38,34.67-30.24,57-6.35,14.41-36,55.5-53.51,65.57l-.08.14a45.83,45.83,0,0,0-10.09-3.55C391.87,1587.83,387.17,1565.2,383.36,1558.09Z" fill="#fff"/>
      <path d="M379.1,1549.29c3.22-38.32,10.8-64.93,17.38-82.47a314.89,314.89,0,0,0,12.6-43.42c3.31-15.38,4.22-25.27,3.4-35.81a101.28,101.28,0,0,0-5.6-26.12h0a51.31,51.31,0,0,0,8.22,5.23,52.45,52.45,0,0,0,15.07,5,176.9,176.9,0,0,0-4.05,35.77c-.26,24.06,4.59,35.94,6.68,60.64A248.68,248.68,0,0,1,432,1517h0C420.65,1526,401.06,1540.53,379.1,1549.29Z" fill="#f2f2f2"/>
      <path d="M392.47,1281c-4.51-8.22-4.73-10.45-4.13-12.39,1.33-4.36,6.42-6.19,7.18-6.47,4.21,7.63,11.16,12.85,14.48,16.11,5,4.89,7.65,6.89,12.89,12.11A125.72,125.72,0,0,1,434.42,1303c3.2,4.08,6.72,7.93,9.79,12.11a15.86,15.86,0,0,0,6.83,5.8c1.28.51,3.4,1.31,5.37.33a5.68,5.68,0,0,0,2.69-3.59,5.75,5.75,0,0,0,.14-1.84h0c1.73,8.21-2.54,19-4.11,22.31-2.44,5.16-4.91,4.81-9.34,12-3.85,6.29-3.34,8.79-7.18,13.83a33.15,33.15,0,0,1-8.45,7.72,52.45,52.45,0,0,1-15.07-5,51.31,51.31,0,0,1-8.22-5.23,52.93,52.93,0,0,1-4.18-3.6,108.35,108.35,0,0,0,2-47.77c-1.38-7.58-2.1-11.51-4.67-16.53C398,1289.54,396.48,1288.32,392.47,1281Z" fill="#ff8080"/>
      <path d="M395.52,1262.13c3.68-1.32,6.9-.56,10.6.36a42.67,42.67,0,0,1,12.39,5.57,62.08,62.08,0,0,1,13.65,10.42c4.14,4.28,3.1,4.64,8.62,11.67,3.1,3.95,8.79,10.67,15.45,19.4,1.1,1.43,2.8,3.73,3,6.24a5.75,5.75,0,0,1-.14,1.84,5.68,5.68,0,0,1-2.69,3.59c-2,1-4.09.18-5.37-.33a15.86,15.86,0,0,1-6.83-5.8c-3.07-4.18-6.59-8-9.79-12.11a125.72,125.72,0,0,0-11.53-12.63c-5.24-5.22-7.9-7.22-12.89-12.11C406.68,1275,399.73,1269.76,395.52,1262.13Z" fill="#1a1a1a"/>
      <path d="M424.36,1776.76c-1.45-3.58-.52-6.47,2.4-16,4.5-14.74,6.75-22.14,7-23.8,1.79-14.4-4.75-23.36-2.41-24.59,2.69-1.43,12.17,10,18.45,21.12,5.87,10.4,10,17.7,9.36,27.27-.77,11.56-7.65,13.88-9.1,28.07-.62,6.12.24,9.74,1.61,18.18,1.47,9.11,3.26,22.1,4.47,38.48-.63-7.1-3.26-16.72-7.89-33.65-2.32-8.49-4.26-14.74-9.37-16.74-1.87-.73-4.07-.79-8.48-.89a18,18,0,0,0-.12-5.91C429.18,1782.65,425.92,1780.63,424.36,1776.76Z" fill="#fff"/>
      <path d="M509.94,1427.5c-.12-5.81-1.92-10.11,1.36-15.32,4-6.42,10.22-5.39,13-12.2,1.91-4.67-.55-6.27.53-13,1.19-7.37,4.57-8.07,8.75-17.24,3.75-8.19,4.74-15.69,5.57-22,1-7.81.42-10.6,2.39-18,2.21-8.34,4.61-11,5.83-12.2a19.66,19.66,0,0,1,11.7-5.11,12.89,12.89,0,0,0-5.86,2.19c-2.48,1.72-4.15,4.7-5.57,16.18-1,8.32-1.15,15-1.06,26,.1,12.49.16,18.79.79,21.74,2.27,10.57,5.3,9.86,8,22a135.06,135.06,0,0,1,2.92,19.36c.21,4,.09,6.33,1.32,9.81.68,1.93,3.28,9.29,9.55,10.88a10.8,10.8,0,0,0,5,0,27.36,27.36,0,0,1-7.16,2.65c-5,1.07-8.68.26-11.4,0-5.43-.53-9.49.75-16.68,3.24a19.66,19.66,0,0,1-8.15-3.39c-5-3.68-5.25-7.9-9.7-11.54C519,1429.82,515.57,1427.93,509.94,1427.5Z" fill="#ff4c4f"/>
      <path d="M546.57,1356.76c-.09-11,0-17.67,1.06-26,1.42-11.48,3.09-14.46,5.57-16.18a12.89,12.89,0,0,1,5.86-2.19l.23,0a16.7,16.7,0,0,1,6.37.62c7,2.2,9.91,9.23,12.47,14.06,6,11.43,4.82,23.24,3.71,33.94-1.27,12.17-3.57,13.19-4.51,27.32-.59,8.86-.89,13.29.53,18.82s3.43,8.5,4,15.65c.47,6.16-.63,9.11-1.33,10.61a17.59,17.59,0,0,1-6.36,7.16,10.8,10.8,0,0,1-5,0c-6.27-1.59-8.87-9-9.55-10.88-1.23-3.48-1.11-5.8-1.32-9.81a135.06,135.06,0,0,0-2.92-19.36c-2.66-12.15-5.69-11.44-8-22C546.73,1375.55,546.67,1369.25,546.57,1356.76Z" fill="#1a1a1a"/>
</svg>
