<svg xmlns="http://www.w3.org/2000/svg" viewBox="0 0 997.67 1024.65">
  <title>Landing</title>
  <g>
    <path d="M710.11,636.28c116.94-116.94,116.94-306.53,0-423.46s-306.52-116.94-423.46,0-116.93,306.52,0,423.46" fill="none" stroke="#5fe2bc" stroke-miterlimit="10" stroke-width="13"/>
    <path d="M731.29,661.84c128.63-128.63,128.63-337.18,0-465.81S394.11,67.4,265.48,196" fill="none" stroke="#ffff90" stroke-miterlimit="10" stroke-width="13"/>
    <path d="M754.58,177.56c-141.49-141.49-370.9-141.49-512.39,0s-141.49,370.9,0,512.39" fill="none" stroke="#53ced4" stroke-miterlimit="10" stroke-width="13"/>
    <path d="M780.2,157.25c-155.64-155.64-408-155.64-563.63,0s-155.64,408,0,563.63" fill="none" stroke="#a5f97e" stroke-miterlimit="10" stroke-width="13"/>
    <path d="M808.38,754.9c171.21-171.21,171.21-448.79,0-620s-448.79-171.2-620,0" fill="none" stroke="#5fe2bc" stroke-miterlimit="10" stroke-width="13"/>
    <path d="M683.13,837c-64.91-45-107-130.23-72.84-227l0,0q4-9.36,7.65-19c16.88-45,26.78-94.14,26.78-134,0-102.42-65.29-185.43-145.86-185.43,0-19-33.54-56.14-80.43-56h0c19.89-33.44,108.08-81.49,159.32-51.55S622,245.15,653.19,276.3,741.43,319.54,780,358.13,836.58,487.88,776,583,815.29,758.66,843.9,790.6s66,137.6-3.18,227.84H739.4c41.22-79.2,40.83-127-38.35-170.35A199.28,199.28,0,0,1,683.13,837Z" fill="#362e97"/>
    <path d="M701.05,848.09c79.18,43.4,79.57,91.15,38.35,170.35H243.72c-41.24-79.2,21.69-127,100.87-170.35q9.6-5.25,18.1-10.9c.29,73.63,74.25,110.73,160.21,110.73S683,910.76,683.13,837A199.28,199.28,0,0,0,701.05,848.09Z" fill="#6aec9a"/>
    <path d="M683.13,837c-118.3,12.68-223.83-83-284.87-204.06,26.16,51,61.61,89.26,100.62,89.26,44.69,0,84.66-50.1,111.41-112.19C576.17,706.77,618.22,792,683.13,837Z" fill="#e6e6e6"/>
    <path d="M398.26,632.94C459.3,754.05,564.83,849.68,683.13,837,683,910.76,609,947.92,522.9,947.92S363,910.82,362.69,837.19c64.43-42.82,80.86-103.46,33.91-207.55C397.15,630.74,397.69,631.84,398.26,632.94Z" fill="#f2f2f2"/>
    <path d="M644.74,456.89c0,39.9-9.9,89-26.78,134q-4.32,9.59-7.65,19l0,0C583.54,672.1,543.57,722.2,498.88,722.2c-39,0-74.46-38.22-100.62-89.26-.57-1.1-1.11-2.2-1.66-3.3a.93.93,0,0,1-.05-.1C369.69,575.74,353,508.61,353,456.89c0-102.42,65.29-185.43,145.84-185.43S644.74,354.47,644.74,456.89Z" fill="#f2f2f2"/>
    <path d="M362.69,837.19q-8.51,5.65-18.1,10.9c-79.18,43.4-142.11,91.15-100.87,170.35H134.26c39.68-71.61-102.62-111.71-8.21-171.91s95.77-91.67,95.77-194.28,86-140.37,86-193.88c0-54.61-57.23-118.06,27.59-202.89,29.45-29.44,58.15-40,83.08-40.06,46.89-.1,80.43,37.08,80.43,56-80.55,0-145.84,83-145.84,185.43,0,51.72,16.65,118.85,43.51,172.65a.93.93,0,0,0,.05.1C443.55,733.73,427.12,794.37,362.69,837.19Z" fill="#4a2380"/>
    <rect x="288.91" y="424.55" width="55.68" height="144.56" rx="12" fill="#d5fd88" stroke="#d5fd88" stroke-miterlimit="10" stroke-width="3"/>
    <rect x="653.19" y="424.55" width="55.68" height="144.56" rx="12" fill="#d5fd88" stroke="#d5fd88" stroke-miterlimit="10" stroke-width="3"/>
    <path d="M681,424.55a182.14,182.14,0,0,0-364.28,0" fill="none" stroke="#d5fd88" stroke-miterlimit="10" stroke-width="6"/>
  </g>
</svg>
