<svg xmlns="http://www.w3.org/2000/svg" viewBox="0 0 1920 534.8">
  <title>lines</title>
  <g>
    <path d="M836.47,464.66a60.4,60.4,0,0,1-104.63,0" fill="none" stroke="#9d5aff" stroke-miterlimit="10" stroke-width="5"/>
    <path d="M1117.41,418.36l-26.73,46.3a59.81,59.81,0,0,1-52.32,30.21" fill="none" stroke="#ff52c2" stroke-miterlimit="10" stroke-width="5"/>
    <path d="M1654.79,102.07l26.78-46.39a60.58,60.58,0,0,1,52.32-30.2H1920" fill="none" stroke="#65e8ff" stroke-miterlimit="10" stroke-width="5"/>
    <path d="M1387.25,453.17a37.42,37.42,0,0,0,64.83,0" fill="none" stroke="#6c5dff" stroke-miterlimit="10" stroke-width="5"/>
    <path d="M1176.69,269.72a60.41,60.41,0,0,1,104.64,0l24.35,42.18" fill="none" stroke="#ff52c2" stroke-miterlimit="10" stroke-width="5"/>
    <path d="M846.65,401.07l12.29-21.28a60.4,60.4,0,0,1,104.63,0" fill="none" stroke="#6c5dff" stroke-miterlimit="10" stroke-width="5"/>
    <path d="M647.1,453.17a60.42,60.42,0,0,1,104.64,0" fill="none" stroke="#ff52c2" stroke-miterlimit="10" stroke-width="5"/>
    <path d="M784.15,506.36a71.15,71.15,0,0,1-62.26-35.95,25.94,25.94,0,0,0-44.94,0" fill="none" stroke="#6c5dff" stroke-miterlimit="10" stroke-width="5"/>
    <path d="M1100.63,470.41a71.18,71.18,0,0,1-62.27,35.95h0a71.17,71.17,0,0,1-62.27-35.95" fill="none" stroke="#6c5dff" stroke-miterlimit="10" stroke-width="5"/>
    <path d="M1535.92,376.89l-54,93.52a71.18,71.18,0,0,1-62.27,35.95h0" fill="none" stroke="#65e8ff" stroke-miterlimit="10" stroke-width="5"/>
    <path d="M1616.08,146.14l55.54-96.2A72.08,72.08,0,0,1,1733.89,14H1920" fill="none" stroke="#6c5dff" stroke-miterlimit="10" stroke-width="5"/>
    <path d="M1149.76,293.39l17-29.42a71.9,71.9,0,0,1,124.54,0" fill="none" stroke="#6c5dff" stroke-miterlimit="10" stroke-width="5"/>
    <path d="M911.26,338.09a71.15,71.15,0,0,1,62.26,36l15.61,27" fill="none" stroke="#ff52c2" stroke-miterlimit="10" stroke-width="5"/>
    <path d="M699.42,411.48a71.18,71.18,0,0,1,62.27,35.95,25.5,25.5,0,0,0,22.46,13" fill="none" stroke="#6c5dff" stroke-miterlimit="10" stroke-width="5"/>
    <path d="M1156.79,258.23a83.39,83.39,0,0,1,144.44,0" fill="none" stroke="#67ffe6" stroke-miterlimit="10" stroke-width="5"/>
    <path d="M839,368.3a83.38,83.38,0,0,1,144.43,0" fill="none" stroke="#ff4f89" stroke-miterlimit="10" stroke-width="5"/>
    <path d="M524.44,497.83h62A14.5,14.5,0,0,0,599,490.6l28.24-48.92a83.4,83.4,0,0,1,144.44,0" fill="none" stroke="#9d5aff" stroke-miterlimit="10" stroke-width="5"/>
    <path d="M856.37,476.15a82.56,82.56,0,0,1-72.22,41.7" fill="none" stroke="#ff52c2" stroke-miterlimit="10" stroke-width="5"/>
    <path d="M1038.36,517.85a82.56,82.56,0,0,1-72.22-41.7" fill="none" stroke="#65e8ff" stroke-miterlimit="10" stroke-width="5"/>
    <path d="M1419.66,517.85a82.54,82.54,0,0,1-72.21-41.7" fill="none" stroke="#ff4f89" stroke-miterlimit="10" stroke-width="5"/>
    <path d="M1585.24,176.58,1661.67,44.2a83.62,83.62,0,0,1,72.22-41.7" fill="none" stroke="#ff52c2" stroke-miterlimit="10" stroke-width="5"/>
    <path d="M0,532.3H586.44a48.94,48.94,0,0,0,42.37-24.46l28.24-48.92c18.83-32.62,65.91-32.62,84.74,0h0c18.83,32.61,65.9,32.61,84.73,0l42.37-73.39c18.83-32.61,65.9-32.61,84.73,0L996,458.92c18.83,32.61,65.9,32.61,84.73,0l105.92-183.46c18.83-32.61,65.91-32.61,84.74,0L1377.3,458.92c18.83,32.61,65.9,32.61,84.73,0L1691.52,61.43A48.92,48.92,0,0,1,1733.89,37H1920" fill="none" stroke="#ff4c4f" stroke-miterlimit="10" stroke-width="5"/>
  </g>
</svg>
