<svg xmlns="http://www.w3.org/2000/svg" viewBox="0 0 1783.96 578.69">

    <path d="M105.35,227.14A105.35,105.35,0,1,1,210.7,121.79H168.56A63.21,63.21,0,1,0,105.35,185Z"/>
    <path d="M105.35,354A105.47,105.47,0,0,1,0,248.63H42.14a63.21,63.21,0,1,0,63.21-63.21V143.28a105.35,105.35,0,0,1,0,210.7Z"/>
    <path class="circle" d="M554.85,143.28A105.35,105.35,0,1,0,660.2,248.63,105.47,105.47,0,0,0,554.85,143.28Zm0,168.56a63.21,63.21,0,1,1,63.21-63.21A63.29,63.29,0,0,1,554.85,311.84Z"/>
    <path class="circle" d="M779.6,143.28A105.35,105.35,0,1,0,885,248.63,105.47,105.47,0,0,0,779.6,143.28Zm0,168.56a63.21,63.21,0,1,1,63.21-63.21A63.29,63.29,0,0,1,779.6,311.84Z"/>
    <path class="circle" d="M779.6,368A105.36,105.36,0,1,0,885,473.33,105.47,105.47,0,0,0,779.6,368Zm0,168.57a63.22,63.22,0,1,1,63.21-63.22A63.29,63.29,0,0,1,779.6,536.55Z"/>
    <path d="M330.1,143.28A105.47,105.47,0,0,0,224.75,248.63V434.05h42.14V248.63a63.21,63.21,0,1,1,63.21,63.21V354a105.35,105.35,0,0,0,0-210.7Z"/>
    <path d="M1453.86,143.28A105.47,105.47,0,0,0,1348.5,248.63V434.05h42.14V248.63a63.22,63.22,0,1,1,63.22,63.21V354a105.35,105.35,0,1,0,0-210.7Z"/>
    <path d="M1004.35,143.28A105.47,105.47,0,0,0,899,248.63v84.28h42.14V248.63a63.22,63.22,0,0,1,126.43,0h42.14A105.47,105.47,0,0,0,1004.35,143.28Z"/>
    <path d="M1678.61,164.35a104.78,104.78,0,0,0-63.21,21.13V0h-42.15V354h42.15V269.7a63.21,63.21,0,0,1,126.42,0V354H1784V269.7A105.47,105.47,0,0,0,1678.61,164.35Z"/>
    <path d="M1334.46,248.63A105.47,105.47,0,0,0,1229.1,143.28v42.14a63.21,63.21,0,1,1-63.21,63.21h-42.14a105.3,105.3,0,0,0,168.57,84.22V354h42.14V248.63Z"/>

</svg>
