<svg xmlns="http://www.w3.org/2000/svg" xmlns:xlink="http://www.w3.org/1999/xlink" viewBox="0 0 1136.21 1136.21">
  <defs>
    <linearGradient id="a" x1="347.42" y1="568.36" x2="789.29" y2="568.36" gradientUnits="userSpaceOnUse">
      <stop offset="0" stop-color="#9d5aff"/>
      <stop offset="0.5" stop-color="#ff52c2"/>
      <stop offset="0.99" stop-color="#ff4c4f"/>
    </linearGradient>
  </defs>
  <title>LP</title>
  <g>
    <g>
      <path d="M568.36.25c313.74,0,568.1,254.36,568.1,568.11s-254.36,568.1-568.1,568.1S.25,882.1.25,568.36,254.61.25,568.36.25ZM789.29,568.36c0-122-98.92-220.94-220.93-220.94S347.42,446.34,347.42,568.36s98.92,220.93,220.94,220.93S789.29,690.37,789.29,568.36Z" transform="translate(-0.25 -0.25)" fill="#333"/>
      <path d="M568.36,347.42c122,0,220.93,98.92,220.93,220.94S690.37,789.29,568.36,789.29,347.42,690.37,347.42,568.36,446.34,347.42,568.36,347.42Zm20.17,220.94a20.18,20.18,0,1,0-20.17,20.17A20.18,20.18,0,0,0,588.53,568.36Z" transform="translate(-0.25 -0.25)" fill="url(#a)"/>
      <circle cx="568.11" cy="568.11" r="20.17"/>
    </g>
    <path d="M862.52,986.55c231-162.46,286.5-481.4,124-712.36s-481.4-286.49-712.36-124" transform="translate(-0.25 -0.25)" fill="none" stroke="#f2f2f2" stroke-miterlimit="10" stroke-width="6"/>
    <path d="M568.36,1028.52c254.14,0,460.16-206,460.16-460.16s-206-460.17-460.16-460.17" transform="translate(-0.25 -0.25)" fill="none" stroke="#f2f2f2" stroke-miterlimit="10" stroke-width="6"/>
    <path d="M746.43,942.26c206.51-98.34,294.18-345.48,195.83-552S596.78,96.1,390.28,194.45" transform="translate(-0.25 -0.25)" fill="none" stroke="#f2f2f2" stroke-miterlimit="10" stroke-width="6"/>
    <path d="M831.92,831.92c145.56-145.56,145.56-381.57,0-527.13s-381.57-145.56-527.13,0" transform="translate(-0.25 -0.25)" fill="none" stroke="#f2f2f2" stroke-miterlimit="10" stroke-width="6"/>
  </g>
</svg>
